{
.appVersion = "3306";
.formatVersion = 3;
DisplayStrings = (
"Գ",
"գ",
"դ",
"Դ",
"ե",
"զ",
"Զ",
"Է",
"է",
"Ը",
"ը",
"Թ",
"թ",
"Ժ",
"ժ",
"Ի",
"ի",
"Լ",
"լ",
"Խ",
"խ",
"Ծ",
"ծ",
"Կ",
"կ",
"Հ",
"հ",
"Ձ",
"ձ",
"Ղ",
"ղ",
"Ճ",
"ճ",
"Մ",
"մ",
"Յ",
"յ",
"Ն",
"ն",
"Շ",
"շ",
"Ո",
"ո",
"Չ",
"չ",
"Պ",
"պ",
"Ջ",
"ջ",
"Ռ",
"ռ",
"Ս",
"ս",
"Վ",
"վ",
"Տ",
"տ",
"Ր",
"ր",
"Ց",
"ց",
"Ւ",
"ւ",
"Փ",
"փ",
"Ք",
"ք",
"Օ",
"օ",
"Ֆ",
"ֆ",
"և",
" ",
"֏",
"՚",
"ՙ",
"՛",
"  
       
  
    
       
         
      
    
  
    
՜",
"՝",
"՞",
"՟",
"։",
"֊",
"՜",
"Ա",
"Բ",
"ա",
"բ",
"Ե"
);
date = "2024-09-16 09:23:37 +0000";
familyName = "HM Tarer Wide ";
fontMaster = (
{
id = m01;
metricValues = (
{
over = 16;
pos = 290;
},
{
over = -16;
},
{
over = -16;
pos = -44;
}
);
name = Regular;
}
);
glyphs = (
{
glyphname = "Ayb-arm";
lastChange = "2024-09-17 13:28:50 +0000";
layers = (
{
layerId = m01;
shapes = (
{
closed = 1;
nodes = (
(1092,10,l),
(1092,4,o),
(1088,0,o),
(1082,0,c),
(842,0,l),
(837,0,o),
(832,4,o),
(832,10,c),
(832,23,l),
(832,41,o),
(818,55,o),
(800,55,c),
(799,55,l),
(797,24,o),
(771,0,o),
(740,0,c),
(80,0,l),
(47,0,o),
(20,27,o),
(20,60,c),
(20,280,l),
(20,285,o),
(24,290,o),
(30,290,c),
(336,290,l),
(341,290,o),
(345,286,o),
(345,281,c),
(345,68,l),
(345,44,o),
(365,23,o),
(390,23,c),
(430,23,l),
(455,23,o),
(475,44,o),
(475,68,c),
(475,281,l),
(475,286,o),
(479,290,o),
(484,290,c),
(790,290,l),
(795,290,o),
(800,285,o),
(800,280,c),
(800,72,l),
(1062,72,l),
(1079,72,o),
(1092,59,o),
(1092,42,c)
);
}
);
width = 1112;
}
);
unicode = 1329;
},
{
glyphname = "Ben-arm";
lastChange = "2024-09-16 20:29:04 +0000";
layers = (
{
layerId = m01;
shapes = (
{
closed = 1;
nodes = (
(475,253,l),
(475,261,o),
(468,267,o),
(460,267,c),
(359,267,l),
(355,267,o),
(351,266,o),
(349,263,c),
(346,260,o),
(345,257,o),
(345,253,c),
(345,102,l),
(740,102,l),
(773,102,o),
(800,75,o),
(800,42,c),
(800,40,l),
(800,34,o),
(795,30,o),
(790,30,c),
(485,30,l),
(479,30,o),
(475,34,o),
(475,40,c),
(475,64,l),
(475,72,o),
(468,79,o),
(460,79,c),
(359,79,l),
(355,79,o),
(351,77,o),
(349,75,c),
(346,72,o),
(345,68,o),
(345,64,c),
(345,10,l),
(345,5,o),
(340,0,o),
(335,0,c),
(30,0,l),
(24,0,o),
(20,5,o),
(20,10,c),
(20,231,l),
(20,264,o),
(46,290,o),
(80,290,c),
(740,290,l),
(773,290,o),
(800,264,o),
(800,231,c),
(800,156,l),
(800,150,o),
(795,146,o),
(790,146,c),
(485,146,l),
(479,146,o),
(475,150,o),
(475,156,c)
);
}
);
width = 820;
}
);
unicode = 1330;
},
{
glyphname = "Gim-arm";
lastChange = "2024-09-16 20:29:45 +0000";
layers = (
{
layerId = m01;
shapes = (
{
closed = 1;
nodes = (
(474,156,l),
(474,147,o),
(470,139,o),
(465,133,c),
(459,127,o),
(451,124,o),
(442,124,c),
(377,124,l),
(368,124,o),
(359,127,o),
(354,133,c),
(348,139,o),
(344,147,o),
(344,156,c),
(344,235,l),
(344,244,o),
(348,252,o),
(354,258,c),
(359,264,o),
(368,267,o),
(377,267,c),
(442,267,l),
(451,267,o),
(459,264,o),
(465,258,c),
(470,252,o),
(474,244,o),
(474,235,c)
);
},
{
closed = 1;
nodes = (
(799,116,l),
(799,230,l),
(799,263,o),
(772,290,o),
(739,290,c),
(80,290,l),
(46,290,o),
(20,263,o),
(20,230,c),
(20,161,l),
(20,128,o),
(46,101,o),
(80,101,c),
(344,101,l),
(474,101,l),
(474,10,l),
(474,4,o),
(479,0,o),
(484,0,c),
(789,0,l),
(795,0,o),
(799,4,o),
(799,10,c),
(799,87,l),
(799,91,o),
(801,94,o),
(803,97,c),
(806,100,o),
(810,101,o),
(814,101,c),
(850,101,l),
(858,101,o),
(864,95,o),
(864,87,c),
(864,56,l),
(864,50,o),
(869,46,o),
(874,46,c),
(1080,46,l),
(1086,46,o),
(1090,50,o),
(1090,56,c),
(1090,86,l),
(1090,102,o),
(1077,116,o),
(1060,116,c)
);
}
);
width = 1110;
}
);
unicode = 1331;
},
{
glyphname = "Da-arm";
lastChange = "2024-09-19 09:47:55 +0000";
layers = (
{
layerId = m01;
shapes = (
{
closed = 1;
nodes = (
(1091,71,l),
(1091,65,o),
(1087,61,o),
(1081,61,c),
(875,61,l),
(869,61,o),
(865,65,o),
(865,71,c),
(865,102,l),
(865,110,o),
(858,116,o),
(850,116,c),
(814,116,l),
(810,116,o),
(807,115,o),
(804,112,c),
(802,109,o),
(800,106,o),
(800,102,c),
(800,10,l),
(800,5,o),
(795,0,o),
(790,0,c),
(517,0,l),
(512,0,o),
(507,5,o),
(507,10,c),
(507,252,l),
(507,260,o),
(501,267,o),
(493,267,c),
(359,267,l),
(355,267,o),
(352,265,o),
(349,263,c),
(347,260,o),
(345,256,o),
(345,252,c),
(345,112,l),
(345,106,o),
(340,102,o),
(335,102,c),
(30,102,l),
(24,102,o),
(20,106,o),
(20,112,c),
(20,231,l),
(20,264,o),
(47,290,o),
(80,290,c),
(740,290,l),
(773,290,o),
(800,264,o),
(800,230,c),
(800,131,l),
(1061,131,l),
(1078,131,o),
(1091,117,o),
(1091,101,c)
);
}
);
width = 1111;
}
);
unicode = 1332;
},
{
glyphname = "Ech-arm";
lastChange = "2024-09-16 20:30:36 +0000";
layers = (
{
layerId = m01;
shapes = (
{
closed = 1;
nodes = (
(475,161,l),
(475,168,o),
(473,174,o),
(470,179,c),
(468,181,o),
(467,183,o),
(465,184,c),
(460,190,o),
(451,194,o),
(442,194,c),
(359,194,l),
(355,194,o),
(352,192,o),
(349,190,c),
(347,187,o),
(345,183,o),
(345,179,c),
(345,38,l),
(345,30,o),
(351,23,o),
(359,23,c),
(460,23,l),
(464,23,o),
(468,25,o),
(471,28,c),
(473,30,o),
(475,34,o),
(475,38,c),
(475,77,l),
(475,82,o),
(479,87,o),
(485,87,c),
(757,87,l),
(763,87,o),
(767,82,o),
(767,77,c),
(767,60,l),
(767,27,o),
(741,0,o),
(707,0,c),
(345,0,l),
(80,0,l),
(47,0,o),
(20,27,o),
(20,60,c),
(20,280,l),
(20,285,o),
(24,290,o),
(30,290,c),
(336,290,l),
(341,290,o),
(345,286,o),
(345,281,c),
(345,217,l),
(707,217,l),
(741,217,o),
(767,190,o),
(767,157,c),
(767,155,l),
(767,149,o),
(763,145,o),
(757,145,c),
(485,145,l),
(479,145,o),
(475,149,o),
(475,155,c)
);
}
);
width = 787;
}
);
unicode = 1333;
},
{
glyphname = "Za-arm";
lastChange = "2024-09-16 20:31:35 +0000";
layers = (
{
layerId = m01;
shapes = (
{
closed = 1;
nodes = (
(800,0,l),
(485,0,l),
(480,0,o),
(475,5,o),
(475,12,c),
(475,26,l),
(475,39,o),
(461,54,o),
(443,54,c),
(345,54,l),
(345,25,l),
(345,19,o),
(341,15,o),
(335,15,c),
(30,15,l),
(24,15,o),
(20,19,o),
(20,25,c),
(20,106,l),
(20,112,o),
(24,116,o),
(30,116,c),
(335,116,l),
(341,116,o),
(345,116,o),
(345,110,c),
(345,77,l),
(443,77,l),
(452,77,o),
(460,80,o),
(466,86,c),
(467,88,o),
(469,89,o),
(470,91,c),
(473,96,o),
(475,102,o),
(475,109,c),
(475,252,l),
(475,260,o),
(469,267,o),
(461,267,c),
(360,267,l),
(356,267,o),
(352,265,o),
(349,262,c),
(347,260,o),
(345,256,o),
(345,252,c),
(345,160,l),
(30,160,l),
(24,160,o),
(20,164,o),
(20,170,c),
(20,230,l),
(20,263,o),
(47,290,o),
(80,290,c),
(725,290,l),
(758,290,o),
(785,263,o),
(785,230,c),
(785,137,o),
(785,87,o),
(510,87,c),
(509,87,o),
(508,86,o),
(508,85,c),
(508,76,l),
(508,75,o),
(509,74,o),
(510,74,c),
(740,87,l),
(773,87,o),
(800,55,o),
(800,15,c)
);
}
);
width = 820;
}
);
unicode = 1334;
},
{
glyphname = "Eh-arm";
lastChange = "2024-09-16 20:32:32 +0000";
layers = (
{
layerId = m01;
shapes = (
{
closed = 1;
nodes = (
(800,155,l),
(800,150,o),
(795,145,o),
(790,145,c),
(485,145,l),
(479,145,o),
(475,150,o),
(475,155,c),
(475,165,o),
(471,174,o),
(465,181,c),
(458,189,o),
(447,195,o),
(435,195,c),
(359,195,l),
(355,195,o),
(351,193,o),
(349,191,c),
(346,188,o),
(345,185,o),
(345,181,c),
(345,37,l),
(345,29,o),
(351,23,o),
(359,23,c),
(725,23,l),
(730,23,o),
(735,18,o),
(735,13,c),
(735,-19,l),
(735,-24,o),
(730,-29,o),
(725,-29,c),
(517,-29,l),
(511,-29,o),
(507,-24,o),
(507,-19,c),
(507,-14,l),
(507,-10,o),
(505,-7,o),
(503,-4,c),
(500,-2,o),
(497,0,o),
(493,0,c),
(30,0,l),
(24,0,o),
(20,5,o),
(20,10,c),
(20,280,l),
(20,286,o),
(24,290,o),
(30,290,c),
(335,290,l),
(340,290,o),
(345,286,o),
(345,280,c),
(345,218,l),
(740,218,l),
(773,218,o),
(800,191,o),
(800,158,c)
);
}
);
width = 820;
}
);
unicode = 1335;
},
{
glyphname = "Et-arm";
lastChange = "2024-09-16 20:33:19 +0000";
layers = (
{
layerId = m01;
shapes = (
{
closed = 1;
nodes = (
(800,-19,l),
(800,-24,o),
(796,-29,o),
(790,-29,c),
(485,-29,l),
(479,-29,o),
(475,-24,o),
(475,-19,c),
(475,-13,l),
(475,-10,o),
(473,-7,o),
(471,-4,c),
(468,-2,o),
(465,0,o),
(461,0,c),
(20,0,l),
(20,240,l),
(20,268,o),
(42,290,o),
(70,290,c),
(739,290,l),
(772,290,o),
(799,263,o),
(799,230,c),
(799,97,l),
(799,92,o),
(795,87,o),
(789,87,c),
(485,87,l),
(480,87,o),
(475,92,o),
(475,97,c),
(475,252,l),
(475,260,o),
(469,267,o),
(461,267,c),
(360,267,l),
(356,267,o),
(352,265,o),
(349,262,c),
(347,260,o),
(345,256,o),
(345,252,c),
(345,37,l),
(345,28,o),
(351,23,o),
(360,23,c),
(790,23,l),
(796,23,o),
(800,18,o),
(800,13,c)
);
}
);
width = 820;
}
);
unicode = 1336;
},
{
glyphname = "To-arm";
lastChange = "2024-09-16 20:35:32 +0000";
layers = (
{
layerId = m01;
shapes = (
{
closed = 1;
nodes = (
(605,37,l),
(605,29,o),
(598,23,o),
(590,23,c),
(555,23,l),
(545,23,o),
(539,27,o),
(534,37,c),
(530,45,o),
(524,56,o),
(524,87,c),
(524,112,o),
(530,151,o),
(555,151,c),
(590,151,l),
(598,151,o),
(605,144,o),
(605,136,c)
);
},
{
closed = 1;
nodes = (
(930,174,l),
(930,230,l),
(930,263,o),
(903,290,o),
(870,290,c),
(80,290,l),
(47,290,o),
(20,263,o),
(20,230,c),
(20,10,l),
(20,5,o),
(24,0,o),
(30,0,c),
(335,0,l),
(340,0,o),
(345,5,o),
(345,10,c),
(345,202,l),
(345,220,o),
(352,236,o),
(364,248,c),
(376,259,o),
(392,267,o),
(410,267,c),
(540,267,l),
(558,267,o),
(574,259,o),
(586,248,c),
(598,236,o),
(605,220,o),
(605,202,c),
(605,174,l),
(470,174,l),
(437,174,o),
(410,147,o),
(410,114,c),
(410,60,l),
(410,27,o),
(437,0,o),
(470,0,c),
(540,0,l),
(605,0,l),
(870,0,l),
(903,0,o),
(930,27,o),
(930,60,c),
(930,151,l),
(951,151,l),
(963,151,o),
(995,142,o),
(995,112,c),
(995,106,o),
(999,102,o),
(1005,102,c),
(1180,102,l),
(1185,102,o),
(1190,106,o),
(1190,112,c),
(1190,114,l),
(1190,147,o),
(1163,174,o),
(1130,174,c)
);
}
);
width = 1210;
}
);
unicode = 1337;
},
{
glyphname = "Zhe-arm";
lastChange = "2024-09-16 20:42:18 +0000";
layers = (
{
layerId = m01;
shapes = (
{
closed = 1;
nodes = (
(508,95,l),
(508,75,o),
(500,57,o),
(487,44,c),
(473,31,o),
(455,23,o),
(435,23,c),
(418,23,l),
(398,23,o),
(380,31,o),
(367,44,c),
(353,57,o),
(345,75,o),
(345,95,c),
(345,136,l),
(345,156,o),
(353,174,o),
(367,187,c),
(380,200,o),
(398,209,o),
(418,209,c),
(498,209,l),
(503,209,o),
(508,204,o),
(508,199,c)
);
},
{
closed = 1;
nodes = (
(833,232,l),
(833,280,l),
(833,286,o),
(828,290,o),
(823,290,c),
(518,290,l),
(512,290,o),
(508,286,o),
(508,280,c),
(508,232,l),
(80,232,l),
(47,232,o),
(20,205,o),
(20,172,c),
(20,60,l),
(20,27,o),
(47,0,o),
(80,0,c),
(773,0,l),
(806,0,o),
(833,27,o),
(833,60,c),
(833,209,l),
(854,209,l),
(878,209,o),
(898,190,o),
(898,165,c),
(898,160,o),
(902,155,o),
(908,155,c),
(1115,155,l),
(1121,155,o),
(1125,160,o),
(1125,165,c),
(1125,172,l),
(1125,205,o),
(1098,232,o),
(1065,232,c)
);
}
);
width = 1145;
}
);
unicode = 1338;
},
{
glyphname = "Ini-arm";
lastChange = "2024-09-17 13:28:59 +0000";
layers = (
{
layerId = m01;
shapes = (
{
closed = 1;
nodes = (
(800,82,l),
(800,77,o),
(795,72,o),
(790,72,c),
(452,72,l),
(447,72,o),
(442,77,o),
(442,82,c),
(442,121,l),
(442,144,o),
(422,165,o),
(399,165,c),
(345,165,l),
(345,10,l),
(345,4,o),
(340,0,o),
(335,0,c),
(30,0,l),
(24,0,o),
(20,4,o),
(20,10,c),
(20,280,l),
(20,285,o),
(24,290,o),
(30,290,c),
(335,290,l),
(340,290,o),
(345,285,o),
(345,280,c),
(345,188,l),
(740,188,l),
(773,188,o),
(800,161,o),
(800,128,c)
);
}
);
width = 820;
}
);
unicode = 1339;
},
{
glyphname = "Liwn-arm";
lastChange = "2024-09-17 13:29:36 +0000";
layers = (
{
layerId = m01;
shapes = (
{
closed = 1;
nodes = (
(637,-34,l),
(637,-39,o),
(633,-44,o),
(627,-44,c),
(420,-44,l),
(414,-44,o),
(410,-39,o),
(410,-34,c),
(410,-15,l),
(410,-11,o),
(408,-7,o),
(405,-5,c),
(403,-2,o),
(399,0,o),
(395,0,c),
(345,0,l),
(30,0,l),
(24,0,o),
(20,4,o),
(20,10,c),
(20,280,l),
(20,285,o),
(24,290,o),
(30,290,c),
(335,290,l),
(340,290,o),
(345,285,o),
(345,280,c),
(345,38,l),
(345,34,o),
(346,30,o),
(349,27,c),
(351,25,o),
(355,23,o),
(359,23,c),
(507,23,l),
(607,23,l),
(624,23,o),
(637,10,o),
(637,-7,c)
);
}
);
width = 657;
}
);
unicode = 1340;
},
{
glyphname = "Xeh-arm";
lastChange = "2024-09-17 13:30:41 +0000";
layers = (
{
layerId = m01;
shapes = (
{
closed = 1;
nodes = (
(1157,60,l),
(1157,26,o),
(1130,0,o),
(1097,0,c),
(502,0,l),
(469,0,o),
(442,26,o),
(442,60,c),
(442,150,l),
(442,158,o),
(436,165,o),
(428,165,c),
(392,165,l),
(384,165,o),
(377,158,o),
(377,150,c),
(377,10,l),
(377,4,o),
(373,0,o),
(367,0,c),
(30,0,l),
(24,0,o),
(20,4,o),
(20,10,c),
(20,280,l),
(20,285,o),
(24,290,o),
(30,290,c),
(367,290,l),
(373,290,o),
(377,285,o),
(377,280,c),
(377,188,l),
(692,188,l),
(698,188,o),
(702,184,o),
(702,178,c),
(702,38,l),
(702,30,o),
(709,23,o),
(717,23,c),
(818,23,l),
(826,23,o),
(832,30,o),
(832,38,c),
(832,178,l),
(832,184,o),
(837,188,o),
(842,188,c),
(1147,188,l),
(1153,188,o),
(1157,184,o),
(1157,178,c)
);
}
);
width = 1177;
}
);
unicode = 1341;
},
{
glyphname = "Ca-arm";
lastChange = "2024-09-17 13:32:26 +0000";
layers = (
{
layerId = m01;
shapes = (
{
closed = 1;
nodes = (
(605,57,l),
(605,45,o),
(600,34,o),
(592,26,c),
(584,19,o),
(573,14,o),
(561,14,c),
(518,14,l),
(494,14,o),
(475,33,o),
(475,57,c),
(475,173,l),
(475,185,o),
(480,196,o),
(487,204,c),
(495,212,o),
(506,217,o),
(518,217,c),
(561,217,l),
(585,217,o),
(605,197,o),
(605,173,c)
);
},
{
closed = 1;
nodes = (
(305,254,l),
(277,254,o),
(290,290,o),
(270,290,c),
(30,290,l),
(24,290,o),
(20,285,o),
(20,280,c),
(20,261,l),
(20,245,o),
(33,231,o),
(50,231,c),
(280,231,l),
(341,231,l),
(343,231,o),
(345,229,o),
(345,227,c),
(345,221,l),
(345,218,o),
(343,217,o),
(341,217,c),
(177,217,l),
(144,217,o),
(117,190,o),
(117,157,c),
(117,59,l),
(117,26,o),
(144,-1,o),
(177,-1,c),
(902,-1,l),
(935,-1,o),
(962,26,o),
(962,59,c),
(962,157,l),
(962,175,o),
(954,191,o),
(941,202,c),
(938,205,o),
(934,208,o),
(929,210,c),
(921,214,o),
(912,217,o),
(902,217,c),
(804,217,l),
(801,217,o),
(800,218,o),
(800,221,c),
(800,227,l),
(800,229,o),
(801,231,o),
(804,231,c),
(966,231,l),
(982,231,o),
(995,218,o),
(995,202,c),
(995,195,l),
(995,190,o),
(999,185,o),
(1005,185,c),
(1245,185,l),
(1251,185,o),
(1255,190,o),
(1255,195,c),
(1255,224,l),
(1255,240,o),
(1242,254,o),
(1225,254,c)
);
}
);
width = 1275;
}
);
unicode = 1342;
},
{
glyphname = "Ken-arm";
lastChange = "2024-09-17 13:33:54 +0000";
layers = (
{
layerId = m01;
shapes = (
{
closed = 1;
nodes = (
(800,10,l),
(800,4,o),
(795,0,o),
(790,0,c),
(485,0,l),
(479,0,o),
(475,4,o),
(475,10,c),
(475,62,l),
(475,68,o),
(470,72,o),
(465,72,c),
(80,72,l),
(47,72,o),
(20,99,o),
(20,132,c),
(20,280,l),
(20,285,o),
(24,290,o),
(30,290,c),
(335,290,l),
(340,290,o),
(345,285,o),
(345,280,c),
(345,165,o),
(345,95,o),
(403,95,c),
(465,95,l),
(470,95,o),
(475,99,o),
(475,105,c),
(475,207,l),
(475,213,o),
(479,217,o),
(485,217,c),
(790,217,l),
(795,217,o),
(800,213,o),
(800,207,c)
);
}
);
width = 820;
}
);
unicode = 1343;
},
{
glyphname = "Ho-arm";
lastChange = "2024-09-17 13:34:33 +0000";
layers = (
{
layerId = m01;
shapes = (
{
closed = 1;
nodes = (
(800,10,l),
(800,4,o),
(795,0,o),
(790,0,c),
(485,0,l),
(480,0,o),
(475,4,o),
(475,9,c),
(475,90,l),
(475,91,o),
(475,91,o),
(475,92,c),
(474,113,o),
(457,126,o),
(435,126,c),
(377,126,l),
(377,149,l),
(435,149,l),
(457,149,o),
(474,162,o),
(475,183,c),
(475,184,o),
(475,184,o),
(475,185,c),
(475,227,l),
(475,228,o),
(475,228,o),
(475,229,c),
(474,250,o),
(457,267,o),
(435,267,c),
(385,267,l),
(363,267,o),
(345,249,o),
(345,227,c),
(345,198,l),
(345,193,o),
(340,188,o),
(335,188,c),
(30,188,l),
(24,188,o),
(20,193,o),
(20,198,c),
(20,250,l),
(20,272,o),
(38,290,o),
(60,290,c),
(735,290,l),
(767,290,o),
(799,282,o),
(799,250,c),
(799,185,l),
(799,155,o),
(767,145,o),
(735,145,c),
(703,145,l),
(703,130,l),
(735,130,l),
(767,130,o),
(800,106,o),
(800,70,c)
);
}
);
width = 820;
}
);
unicode = 1344;
},
{
glyphname = "Ja-arm";
lastChange = "2024-09-17 13:35:35 +0000";
layers = (
{
layerId = m01;
shapes = (
{
closed = 1;
nodes = (
(89,38,l),
(59,37,o),
(42,76,o),
(64,97,c),
(66,99,o),
(69,101,o),
(72,103,c),
(90,112,o),
(113,105,o),
(131,98,c),
(154,90,o),
(181,62,o),
(200,46,c),
(203,43,o),
(201,38,o),
(197,38,c)
);
},
{
closed = 1;
nodes = (
(750,40,o),
(801,59,o),
(801,101,c),
(801,232,l),
(801,265,o),
(770,290,o),
(736,290,c),
(81,290,l),
(29,288,o),
(17,243,o),
(21,198,c),
(21,193,o),
(26,188,o),
(31,188,c),
(336,188,l),
(342,188,o),
(346,193,o),
(346,198,c),
(346,223,o),
(342,265,o),
(386,267,c),
(386,267,o),
(436,267,o),
(436,267,c),
(459,267,o),
(477,249,o),
(476,227,c),
(476,227,o),
(476,145,o),
(476,145,c),
(476,96,l),
(476,92,o),
(472,91,o),
(470,93,c),
(429,130,l),
(418,139,o),
(403,145,o),
(389,145,c),
(79,145,l),
(30,143,o),
(17,101,o),
(21,58,c),
(21,20,o),
(56,-5,o),
(92,0,c),
(92,0,o),
(375,0,o),
(375,0,c),
(377,0,o),
(380,0,o),
(383,2,c),
(439,27,l),
(442,28,o),
(445,28,o),
(448,25,c),
(474,2,l),
(475,1,o),
(478,0,o),
(480,0,c),
(797,0,l),
(800,0,o),
(801,2,o),
(801,4,c),
(801,25,l),
(801,27,o),
(800,29,o),
(797,29,c),
(723,29,l),
(720,29,o),
(720,32,o),
(722,33,c)
);
}
);
width = 821;
}
);
unicode = 1345;
},
{
glyphname = "Ghad-arm";
lastChange = "2024-09-17 13:36:35 +0000";
layers = (
{
layerId = m01;
shapes = (
{
closed = 1;
nodes = (
(1092,-34,l),
(1092,-39,o),
(1088,-44,o),
(1082,-44,c),
(875,-44,l),
(869,-44,o),
(865,-39,o),
(865,-34,c),
(865,-15,l),
(865,-11,o),
(863,-7,o),
(860,-4,c),
(858,-2,o),
(854,0,o),
(850,0,c),
(800,0,l),
(485,0,l),
(479,0,o),
(475,4,o),
(475,10,c),
(475,238,l),
(475,254,o),
(462,267,o),
(446,267,c),
(373,267,l),
(365,267,o),
(358,264,o),
(353,259,c),
(348,254,o),
(345,246,o),
(345,238,c),
(345,126,l),
(345,120,o),
(340,116,o),
(335,116,c),
(30,116,l),
(24,116,o),
(20,120,o),
(20,126,c),
(20,230,l),
(20,263,o),
(46,290,o),
(80,290,c),
(740,290,l),
(773,290,o),
(800,263,o),
(800,230,c),
(800,23,l),
(1062,23,l),
(1079,23,o),
(1092,10,o),
(1092,-7,c)
);
}
);
width = 1112;
}
);
unicode = 1346;
},
{
glyphname = "Cheh-arm";
lastChange = "2024-09-17 13:36:41 +0000";
layers = (
{
layerId = m01;
shapes = (
{
closed = 1;
nodes = (
(387,29,l),
(382,29,o),
(377,33,o),
(377,39,c),
(377,162,l),
(377,174,o),
(383,184,o),
(393,191,c),
(404,198,o),
(418,203,o),
(435,203,c),
(440,203,o),
(445,202,o),
(450,200,c),
(459,198,o),
(467,194,o),
(475,189,c),
(500,172,o),
(516,143,o),
(516,111,c),
(516,39,l),
(516,33,o),
(511,29,o),
(506,29,c)
);
},
{
closed = 1;
nodes = (
(560,212,l),
(555,213,o),
(556,219,o),
(560,220,c),
(772,243,l),
(787,245,o),
(799,258,o),
(799,273,c),
(799,280,l),
(799,285,o),
(794,290,o),
(789,290,c),
(544,290,l),
(541,290,o),
(540,288,o),
(540,286,c),
(538,256,o),
(513,232,o),
(482,232,c),
(223,288,l),
(219,289,o),
(215,285,o),
(215,281,c),
(215,278,o),
(217,275,o),
(220,274,c),
(371,234,l),
(374,233,o),
(377,229,o),
(377,225,c),
(377,221,o),
(374,217,o),
(369,216,c),
(72,181,l),
(42,177,o),
(20,151,o),
(20,121,c),
(20,60,l),
(20,26,o),
(47,0,o),
(80,0,c),
(790,0,l),
(795,0,o),
(800,4,o),
(800,10,c),
(800,99,l),
(800,126,o),
(782,150,o),
(756,157,c)
);
}
);
width = 820;
}
);
unicode = 1347;
},
{
glyphname = "Men-arm";
lastChange = "2024-09-17 13:37:33 +0000";
layers = (
{
layerId = m01;
shapes = (
{
closed = 1;
nodes = (
(1098,227,l),
(1098,222,o),
(1094,217,o),
(1088,217,c),
(848,217,l),
(843,217,o),
(838,222,o),
(838,227,c),
(838,235,l),
(838,269,o),
(810,266,o),
(800,266,c),
(800,60,l),
(800,27,o),
(773,0,o),
(740,0,c),
(80,0,l),
(47,0,o),
(20,27,o),
(20,60,c),
(20,280,l),
(20,285,o),
(24,290,o),
(30,290,c),
(336,290,l),
(341,290,o),
(345,286,o),
(345,281,c),
(345,68,l),
(345,43,o),
(365,23,o),
(390,23,c),
(430,23,l),
(454,23,o),
(474,43,o),
(475,67,c),
(475,67,o),
(475,68,o),
(475,68,c),
(475,72,l),
(475,280,l),
(475,285,o),
(479,290,o),
(485,290,c),
(1068,290,l),
(1085,290,o),
(1098,276,o),
(1098,260,c)
);
}
);
width = 1118;
}
);
unicode = 1348;
},
{
glyphname = "Yi-arm";
lastChange = "2024-09-17 13:42:41 +0000";
layers = (
{
layerId = m01;
shapes = (
{
closed = 1;
nodes = (
(704,140,l),
(773,140,o),
(796,140,o),
(798,95,c),
(798,47,o),
(807,0,o),
(748,0,c),
(748,0,o),
(81,0,o),
(81,0,c),
(29,2,o),
(17,47,o),
(21,91,c),
(21,97,o),
(26,101,o),
(31,101,c),
(336,101,l),
(364,100,o),
(319,31,o),
(384,23,c),
(385,23,o),
(437,23,o),
(438,23,c),
(486,26,o),
(475,67,o),
(476,100,c),
(476,107,o),
(474,113,o),
(471,119,c),
(455,144,o),
(433,139,o),
(346,140,c),
(346,163,l),
(456,163,l),
(467,163,o),
(476,172,o),
(476,183,c),
(476,196,o),
(486,267,o),
(436,267,c),
(383,267,o),
(346,273,o),
(346,229,c),
(346,226,o),
(346,200,o),
(346,198,c),
(346,192,o),
(341,188,o),
(336,188,c),
(31,188,l),
(26,188,o),
(21,193,o),
(21,198,c),
(22,232,o),
(11,288,o),
(61,290,c),
(61,290,o),
(751,290,o),
(751,290,c),
(779,290,o),
(801,267,o),
(801,240,c),
(802,162,o),
(773,162,o),
(704,162,c)
);
}
);
width = 821;
}
);
unicode = 1349;
},
{
glyphname = "Now-arm";
lastChange = "2024-09-17 13:43:40 +0000";
layers = (
{
layerId = m01;
shapes = (
{
closed = 1;
nodes = (
(1098,145,l),
(1098,60,l),
(1098,27,o),
(1072,0,o),
(1038,0,c),
(378,0,l),
(345,0,o),
(318,27,o),
(318,60,c),
(318,217,l),
(50,217,l),
(34,217,o),
(20,231,o),
(20,247,c),
(20,280,l),
(20,285,o),
(25,290,o),
(30,290,c),
(270,290,l),
(276,290,o),
(280,285,o),
(280,280,c),
(280,267,l),
(280,249,o),
(295,234,o),
(313,234,c),
(633,234,l),
(639,234,o),
(643,230,o),
(643,224,c),
(643,68,l),
(643,43,o),
(664,23,o),
(688,23,c),
(728,23,l),
(753,23,o),
(773,43,o),
(773,68,c),
(773,135,l),
(773,140,o),
(778,145,o),
(783,145,c)
);
}
);
width = 1118;
}
);
unicode = 1350;
},
{
glyphname = "Sha-arm";
lastChange = "2024-09-17 13:44:10 +0000";
layers = (
{
layerId = m01;
shapes = (
{
closed = 1;
nodes = (
(507,168,l),
(507,179,o),
(498,188,o),
(487,188,c),
(385,188,l),
(363,188,o),
(345,171,o),
(345,149,c),
(345,149,o),
(345,149,o),
(345,148,c),
(345,69,l),
(345,68,o),
(345,68,o),
(345,68,c),
(345,46,o),
(363,29,o),
(385,29,c),
(487,29,l),
(504,29,o),
(517,42,o),
(517,59,c),
(517,97,l),
(517,99,o),
(519,101,o),
(521,101,c),
(789,101,l),
(794,101,o),
(799,97,o),
(799,91,c),
(799,60,l),
(799,27,o),
(772,0,o),
(739,0,c),
(80,0,l),
(46,0,o),
(20,27,o),
(20,60,c),
(20,157,l),
(20,190,o),
(46,217,o),
(80,217,c),
(345,217,l),
(467,217,l),
(471,217,o),
(475,221,o),
(475,225,c),
(475,229,o),
(471,232,o),
(467,232,c),
(50,232,l),
(33,232,o),
(20,245,o),
(20,262,c),
(20,280,l),
(20,285,o),
(24,290,o),
(30,290,c),
(341,290,l),
(343,290,o),
(345,288,o),
(345,286,c),
(345,265,l),
(345,263,o),
(346,261,o),
(349,261,c),
(770,261,l),
(786,261,o),
(800,247,o),
(800,231,c),
(800,169,l),
(800,164,o),
(795,159,o),
(790,159,c),
(511,159,l),
(509,159,o),
(507,161,o),
(507,163,c)
);
}
);
width = 820;
}
);
unicode = 1351;
},
{
glyphname = "Vo-arm";
lastChange = "2024-09-17 13:44:32 +0000";
layers = (
{
layerId = m01;
shapes = (
{
closed = 1;
nodes = (
(800,10,l),
(800,4,o),
(796,0,o),
(790,0,c),
(484,0,l),
(479,0,o),
(475,4,o),
(475,9,c),
(475,222,l),
(475,247,o),
(455,267,o),
(430,267,c),
(390,267,l),
(366,267,o),
(346,248,o),
(345,223,c),
(345,223,o),
(345,223,o),
(345,222,c),
(345,218,l),
(345,10,l),
(345,4,o),
(341,0,o),
(335,0,c),
(30,0,l),
(25,0,o),
(20,4,o),
(20,10,c),
(20,230,l),
(20,263,o),
(47,290,o),
(80,290,c),
(740,290,l),
(773,290,o),
(800,263,o),
(800,230,c)
);
}
);
width = 820;
}
);
unicode = 1352;
},
{
glyphname = "Cha-arm";
lastChange = "2024-09-17 13:44:49 +0000";
layers = (
{
layerId = m01;
shapes = (
{
closed = 1;
nodes = (
(800,161,l),
(800,143,o),
(788,127,o),
(771,122,c),
(540,58,l),
(498,58,l),
(540,46,l),
(688,4,l),
(691,3,o),
(690,0,o),
(688,0,c),
(379,0,l),
(378,0,o),
(377,0,o),
(376,0,c),
(34,97,l),
(31,98,o),
(32,101,o),
(34,101,c),
(343,101,l),
(344,101,o),
(345,101,o),
(346,101,c),
(410,83,l),
(436,75,l),
(444,78,o),
(452,83,o),
(458,89,c),
(468,100,o),
(475,114,o),
(475,130,c),
(475,224,l),
(475,248,o),
(455,267,o),
(431,267,c),
(388,267,l),
(376,267,o),
(365,262,o),
(358,255,c),
(350,247,o),
(345,236,o),
(345,224,c),
(345,169,l),
(345,164,o),
(340,159,o),
(335,159,c),
(30,159,l),
(24,159,o),
(20,164,o),
(20,169,c),
(20,250,l),
(20,272,o),
(38,290,o),
(60,290,c),
(760,290,l),
(782,290,o),
(800,272,o),
(800,250,c)
);
}
);
width = 820;
}
);
unicode = 1353;
},
{
glyphname = "Peh-arm";
lastChange = "2024-09-17 13:45:13 +0000";
layers = (
{
layerId = m01;
shapes = (
{
closed = 1;
nodes = (
(800,10,l),
(800,4,o),
(795,0,o),
(790,0,c),
(517,0,l),
(512,0,o),
(507,4,o),
(507,10,c),
(507,238,l),
(507,254,o),
(494,267,o),
(478,267,c),
(471,267,l),
(463,267,o),
(456,264,o),
(451,259,c),
(446,254,o),
(443,246,o),
(442,239,c),
(442,238,o),
(442,238,o),
(442,238,c),
(442,99,l),
(442,94,o),
(438,89,o),
(432,89,c),
(322,89,l),
(317,89,o),
(312,94,o),
(312,99,c),
(312,238,l),
(312,254,o),
(299,267,o),
(283,267,c),
(276,267,l),
(268,267,o),
(261,264,o),
(256,259,c),
(251,253,o),
(247,246,o),
(247,238,c),
(247,201,l),
(247,195,o),
(243,191,o),
(237,191,c),
(30,191,l),
(24,191,o),
(20,195,o),
(20,201,c),
(20,232,l),
(20,265,o),
(47,290,o),
(80,290,c),
(740,290,l),
(773,290,o),
(800,265,o),
(800,232,c)
);
}
);
width = 820;
}
);
unicode = 1354;
},
{
glyphname = "Jheh-arm";
lastChange = "2024-09-17 13:46:49 +0000";
layers = (
{
layerId = m01;
shapes = (
{
closed = 1;
nodes = (
(475,68,l),
(475,66,o),
(473,64,o),
(471,64,c),
(463,64,l),
(461,64,o),
(459,66,o),
(459,69,c),
(459,132,o),
(402,150,o),
(394,152,c),
(342,163,o),
(345,195,o),
(345,209,c),
(345,251,o),
(372,267,o),
(396,267,c),
(437,267,l),
(458,267,o),
(475,250,o),
(475,229,c)
);
},
{
closed = 1;
nodes = (
(702,70,l),
(757,72,o),
(800,116,o),
(800,170,c),
(800,250,l),
(800,272,o),
(782,290,o),
(760,290,c),
(475,290,l),
(60,290,l),
(38,290,o),
(20,272,o),
(20,250,c),
(20,185,l),
(20,163,o),
(38,145,o),
(60,145,c),
(306,145,l),
(320,145,o),
(333,144,o),
(345,143,c),
(348,143,o),
(351,142,o),
(355,141,c),
(447,126,o),
(445,81,o),
(443,68,c),
(443,66,o),
(441,64,o),
(439,64,c),
(349,64,l),
(346,64,o),
(345,66,o),
(345,68,c),
(345,82,l),
(345,85,o),
(342,87,o),
(340,87,c),
(25,87,l),
(22,87,o),
(20,85,o),
(20,82,c),
(20,20,l),
(20,17,o),
(22,15,o),
(25,15,c),
(340,15,l),
(342,15,o),
(345,17,o),
(345,20,c),
(345,37,l),
(345,39,o),
(346,41,o),
(349,41,c),
(471,41,l),
(473,41,o),
(475,39,o),
(475,37,c),
(475,5,l),
(475,3,o),
(477,0,o),
(480,0,c),
(795,0,l),
(797,0,o),
(800,3,o),
(800,5,c),
(800,18,l),
(800,40,o),
(782,58,o),
(760,58,c),
(540,58,l),
(540,65,l)
);
}
);
width = 820;
}
);
unicode = 1355;
},
{
glyphname = "Ra-arm";
lastChange = "2024-09-17 13:47:18 +0000";
layers = (
{
layerId = m01;
shapes = (
{
closed = 1;
nodes = (
(1098,83,l),
(1098,77,o),
(1094,73,o),
(1088,73,c),
(848,73,l),
(842,73,o),
(838,77,o),
(838,83,c),
(838,90,l),
(838,108,o),
(823,122,o),
(806,122,c),
(800,122,l),
(800,10,l),
(800,5,o),
(795,0,o),
(790,0,c),
(484,0,l),
(479,0,o),
(475,4,o),
(475,9,c),
(475,222,l),
(475,247,o),
(455,267,o),
(430,267,c),
(390,267,l),
(365,267,o),
(345,247,o),
(345,222,c),
(345,10,l),
(345,5,o),
(340,0,o),
(335,0,c),
(20,0,l),
(20,230,l),
(20,263,o),
(47,290,o),
(80,290,c),
(740,290,l),
(773,290,o),
(800,263,o),
(800,230,c),
(800,145,l),
(1068,145,l),
(1085,145,o),
(1098,132,o),
(1098,115,c)
);
}
);
width = 1118;
}
);
unicode = 1356;
},
{
glyphname = "Seh-arm";
lastChange = "2024-09-17 13:47:28 +0000";
layers = (
{
layerId = m01;
shapes = (
{
closed = 1;
nodes = (
(800,290,l),
(800,60,l),
(800,27,o),
(773,0,o),
(740,0,c),
(80,0,l),
(47,0,o),
(20,27,o),
(20,60,c),
(20,280,l),
(20,286,o),
(25,290,o),
(30,290,c),
(336,290,l),
(341,290,o),
(345,286,o),
(345,281,c),
(345,69,l),
(345,44,o),
(365,24,o),
(390,24,c),
(430,24,l),
(455,24,o),
(475,43,o),
(475,67,c),
(475,68,o),
(475,68,o),
(475,69,c),
(475,73,l),
(475,280,l),
(475,286,o),
(480,290,o),
(485,290,c)
);
}
);
width = 820;
}
);
unicode = 1357;
},
{
glyphname = "Vew-arm";
lastChange = "2024-09-17 13:49:48 +0000";
layers = (
{
layerId = m01;
shapes = (
{
closed = 1;
nodes = (
(1060,3,o),
(1065,-29,o),
(1050,-29,c),
(1050,-29,o),
(842,-29,o),
(842,-29,c),
(837,-29,o),
(832,-24,o),
(832,-19,c),
(833,-10,o),
(828,0,o),
(818,0,c),
(818,0,o),
(670,0,o),
(670,0,c),
(485,0,l),
(479,0,o),
(475,5,o),
(475,10,c),
(475,73,l),
(80,73,l),
(46,73,o),
(20,100,o),
(20,133,c),
(20,213,l),
(20,215,o),
(22,218,o),
(25,218,c),
(340,218,l),
(342,218,o),
(345,215,o),
(345,213,c),
(349,174,o),
(326,97,o),
(388,96,c),
(388,96,o),
(455,96,o),
(455,96,c),
(466,96,o),
(475,105,o),
(475,116,c),
(475,280,l),
(475,286,o),
(479,290,o),
(485,290,c),
(790,290,l),
(795,290,o),
(800,286,o),
(800,280,c),
(800,23,l),
(1050,23,l),
(1055,23,o),
(1060,18,o),
(1060,13,c)
);
}
);
width = 1080;
}
);
unicode = 1358;
},
{
glyphname = "Tiwn-arm";
lastChange = "2024-09-16 10:46:03 +0000";
layers = (
{
layerId = m01;
shapes = (
{
closed = 1;
nodes = (
(805,37,o),
(780,0,o),
(740,0,c),
(740,0,o),
(60,0,o),
(60,0,c),
(38,0,o),
(20,18,o),
(20,40,c),
(20,126,l),
(20,128,o),
(22,131,o),
(25,131,c),
(340,131,l),
(343,131,o),
(345,128,o),
(345,126,c),
(345,69,l),
(345,47,o),
(363,29,o),
(385,29,c),
(419,30,o),
(473,19,o),
(475,69,c),
(475,90,o),
(478,118,o),
(457,130,c),
(428,160,o),
(96,188,o),
(54,198,c),
(29,202,o),
(17,226,o),
(20,250,c),
(20,272,o),
(38,290,o),
(60,290,c),
(739,290,l),
(785,289,o),
(804,249,o),
(799,208,c),
(799,205,o),
(797,203,o),
(794,203,c),
(480,203,l),
(477,203,o),
(475,205,o),
(475,208,c),
(479,271,o),
(429,261,o),
(385,261,c),
(363,261,o),
(345,243,o),
(345,221,c),
(345,203,o),
(359,187,o),
(377,184,c),
(748,135,l),
(778,131,o),
(800,105,o),
(800,75,c)
);
}
);
width = 821;
}
);
unicode = 1359;
},
{
glyphname = "Reh-arm";
lastChange = "2024-09-17 13:50:23 +0000";
layers = (
{
layerId = m01;
shapes = (
{
closed = 1;
nodes = (
(799,97,l),
(799,92,o),
(794,87,o),
(789,87,c),
(485,87,l),
(479,87,o),
(475,92,o),
(475,97,c),
(475,252,l),
(475,260,o),
(468,267,o),
(460,267,c),
(359,267,l),
(353,267,o),
(345,261,o),
(345,252,c),
(345,0,l),
(20,0,l),
(20,240,l),
(20,268,o),
(42,290,o),
(70,290,c),
(739,290,l),
(772,290,o),
(799,263,o),
(799,230,c)
);
}
);
width = 819;
}
);
unicode = 1360;
},
{
glyphname = "Co-arm";
lastChange = "2024-09-17 13:50:29 +0000";
layers = (
{
layerId = m01;
shapes = (
{
closed = 1;
nodes = (
(362,257,o),
(371,261,o),
(381,261,c),
(438,261,l),
(458,261,o),
(475,245,o),
(475,225,c),
(475,215,o),
(471,206,o),
(464,199,c),
(464,199,o),
(463,198,o),
(463,198,c),
(456,192,o),
(448,189,o),
(438,189,c),
(381,189,l),
(372,189,o),
(363,192,o),
(357,198,c),
(350,205,o),
(345,214,o),
(345,225,c),
(345,235,o),
(349,244,o),
(356,251,c)
);
},
{
closed = 1;
nodes = (
(749,185,l),
(777,185,o),
(800,208,o),
(800,236,c),
(800,239,l),
(800,267,o),
(777,290,o),
(749,290,c),
(70,290,l),
(42,290,o),
(20,267,o),
(20,239,c),
(20,236,l),
(20,208,o),
(42,185,o),
(70,185,c),
(115,185,l),
(116,185,o),
(117,184,o),
(117,183,c),
(117,180,l),
(117,179,o),
(116,178,o),
(115,178,c),
(70,178,l),
(45,178,o),
(24,159,o),
(20,135,c),
(20,133,o),
(22,131,o),
(24,131,c),
(344,131,l),
(346,131,o),
(347,131,o),
(347,133,c),
(353,148,o),
(367,160,o),
(385,160,c),
(435,160,l),
(457,160,o),
(475,142,o),
(475,120,c),
(475,70,l),
(475,48,o),
(457,30,o),
(435,30,c),
(385,30,l),
(363,30,o),
(345,48,o),
(345,70,c),
(345,99,l),
(345,100,o),
(344,102,o),
(342,102,c),
(24,102,l),
(22,102,o),
(20,100,o),
(20,98,c),
(20,51,l),
(20,23,o),
(42,0,o),
(70,0,c),
(749,0,l),
(777,0,o),
(800,23,o),
(800,51,c),
(800,127,l),
(800,155,o),
(777,178,o),
(749,178,c),
(704,178,l),
(703,178,o),
(702,179,o),
(702,180,c),
(702,183,l),
(702,184,o),
(703,185,o),
(704,185,c)
);
}
);
width = 820;
}
);
unicode = 1361;
},
{
glyphname = "Yiwn-arm";
lastChange = "2024-09-19 09:46:33 +0000";
layers = (
{
layerId = m01;
shapes = (
{
closed = 1;
nodes = (
(865,160,l),
(865,145,l),
(495,145,l),
(485,145,o),
(476,153,o),
(475,163,c),
(473,179,o),
(456,195,o),
(435,195,c),
(360,195,l),
(349,195,o),
(345,186,o),
(345,181,c),
(345,10,l),
(345,5,o),
(341,0,o),
(335,0,c),
(30,0,l),
(25,0,o),
(20,5,o),
(20,10,c),
(20,280,l),
(20,286,o),
(25,290,o),
(30,290,c),
(335,290,l),
(341,290,o),
(345,286,o),
(345,280,c),
(345,222,l),
(345,219,o),
(347,218,o),
(349,218,c),
(760,218,l),
(782,218,o),
(800,200,o),
(800,178,c),
(800,174,l),
(800,170,o),
(802,167,o),
(805,164,c),
(807,161,o),
(811,160,o),
(815,160,c)
);
}
);
width = 885;
}
);
unicode = 1362;
},
{
glyphname = "Piwr-arm";
lastChange = "2024-09-17 13:51:52 +0000";
layers = (
{
layerId = m01;
shapes = (
{
closed = 1;
nodes = (
(865,107,l),
(865,85,o),
(848,67,o),
(825,67,c),
(778,67,l),
(772,67,o),
(768,71,o),
(768,77,c),
(768,214,l),
(768,219,o),
(772,224,o),
(778,224,c),
(825,224,l),
(848,224,o),
(865,206,o),
(865,184,c)
);
},
{
closed = 1;
nodes = (
(443,77,l),
(443,71,o),
(439,67,o),
(433,67,c),
(385,67,l),
(363,67,o),
(345,85,o),
(345,107,c),
(345,178,l),
(345,206,o),
(363,224,o),
(385,224,c),
(433,224,l),
(439,224,o),
(443,219,o),
(443,214,c)
);
},
{
closed = 1;
nodes = (
(768,247,l),
(768,280,l),
(768,286,o),
(764,290,o),
(758,290,c),
(453,290,l),
(447,290,o),
(443,286,o),
(443,280,c),
(443,247,l),
(60,247,l),
(38,247,o),
(20,229,o),
(20,207,c),
(20,84,l),
(20,62,o),
(38,44,o),
(60,44,c),
(443,44,l),
(443,10,l),
(443,5,o),
(447,0,o),
(453,0,c),
(758,0,l),
(764,0,o),
(768,5,o),
(768,10,c),
(768,44,l),
(1150,44,l),
(1173,44,o),
(1190,62,o),
(1190,84,c),
(1190,207,l),
(1190,229,o),
(1173,247,o),
(1150,247,c)
);
}
);
width = 1210;
}
);
unicode = 1363;
},
{
glyphname = "Keh-arm";
lastChange = "2024-09-19 10:22:27 +0000";
layers = (
{
layerId = m01;
shapes = (
{
closed = 1;
nodes = (
(540,238,l),
(540,253,o),
(554,267,o),
(569,267,c),
(641,267,l),
(657,267,o),
(670,254,o),
(670,238,c),
(670,197,l),
(670,180,o),
(658,168,o),
(641,168,c),
(550,168,l),
(545,168,o),
(540,172,o),
(540,178,c)
);
},
{
closed = 1;
nodes = (
(544,116,l),
(542,116,o),
(540,118,o),
(540,120,c),
(540,141,l),
(540,143,o),
(542,145,o),
(544,145,c),
(946,145,l),
(973,145,o),
(995,167,o),
(995,194,c),
(995,241,l),
(995,268,o),
(973,290,o),
(946,290,c),
(265,290,l),
(238,290,o),
(215,268,o),
(215,240,c),
(215,120,l),
(215,118,o),
(214,116,o),
(211,116,c),
(23,116,l),
(22,116,o),
(20,115,o),
(20,113,c),
(20,96,l),
(20,94,o),
(22,93,o),
(23,93,c),
(211,93,l),
(214,93,o),
(215,91,o),
(215,89,c),
(215,10,l),
(215,5,o),
(220,0,o),
(225,0,c),
(530,0,l),
(536,0,o),
(540,5,o),
(540,10,c),
(540,89,l),
(540,91,o),
(542,93,o),
(544,93,c),
(818,93,l),
(842,93,o),
(824,73,o),
(843,73,c),
(1050,73,l),
(1056,73,o),
(1060,77,o),
(1060,83,c),
(1060,106,l),
(1060,112,o),
(1056,116,o),
(1050,116,c)
);
}
);
width = 1080;
}
);
unicode = 1364;
},
{
glyphname = "Oh-arm";
lastChange = "2024-09-17 13:55:23 +0000";
layers = (
{
layerId = m01;
shapes = (
{
closed = 1;
nodes = (
(475,217,l),
(475,73,l),
(475,69,l),
(475,68,o),
(475,68,o),
(475,68,c),
(474,43,o),
(454,24,o),
(430,24,c),
(390,24,l),
(365,24,o),
(345,44,o),
(345,69,c),
(345,221,l),
(345,246,o),
(365,266,o),
(390,266,c),
(430,266,l),
(454,266,o),
(474,247,o),
(475,223,c),
(475,222,o),
(475,222,o),
(475,221,c)
);
},
{
closed = 1;
nodes = (
(80,290,l),
(47,290,o),
(20,263,o),
(20,230,c),
(20,60,l),
(20,27,o),
(47,0,o),
(80,0,c),
(740,0,l),
(773,0,o),
(800,27,o),
(800,60,c),
(800,230,l),
(800,263,o),
(773,290,o),
(740,290,c)
);
}
);
width = 820;
}
);
unicode = 1365;
},
{
glyphname = "Feh-arm";
lastChange = "2024-09-17 13:56:45 +0000";
layers = (
{
layerId = m01;
shapes = (
{
closed = 1;
nodes = (
(865,66,l),
(865,42,o),
(845,23,o),
(821,23,c),
(787,23,l),
(776,23,o),
(767,32,o),
(767,43,c),
(767,154,l),
(767,165,o),
(776,174,o),
(787,174,c),
(821,174,l),
(845,174,o),
(865,154,o),
(865,130,c)
);
},
{
closed = 1;
nodes = (
(442,217,l),
(442,206,o),
(433,197,o),
(422,197,c),
(388,197,l),
(364,197,o),
(345,208,o),
(345,232,c),
(345,256,o),
(364,267,o),
(388,267,c),
(422,267,l),
(433,267,o),
(442,258,o),
(442,247,c)
);
},
{
closed = 1;
nodes = (
(772,197,l),
(769,197,o),
(767,199,o),
(767,202,c),
(767,280,l),
(767,286,o),
(763,290,o),
(757,290,c),
(125,290,l),
(103,290,o),
(85,272,o),
(85,250,c),
(85,214,l),
(85,192,o),
(103,174,o),
(125,174,c),
(437,174,l),
(440,174,o),
(442,172,o),
(442,169,c),
(442,43,l),
(442,32,o),
(434,23,o),
(423,23,c),
(378,23,l),
(360,23,o),
(345,38,o),
(345,57,c),
(345,135,l),
(345,141,o),
(340,145,o),
(335,145,c),
(30,145,l),
(24,145,o),
(20,141,o),
(20,135,c),
(20,50,l),
(20,23,o),
(42,0,o),
(70,0,c),
(1110,0,l),
(1154,0,o),
(1190,36,o),
(1190,80,c),
(1190,109,l),
(1190,153,o),
(1154,197,o),
(1110,197,c)
);
}
);
width = 1210;
}
);
unicode = 1366;
},
{
glyphname = "ayb-arm";
lastChange = "2024-09-17 15:58:17 +0000";
layers = (
{
layerId = m01;
shapes = (
{
closed = 1;
nodes = (
(1092,10,l),
(1092,4,o),
(1088,0,o),
(1082,0,c),
(842,0,l),
(837,0,o),
(832,4,o),
(832,10,c),
(832,23,l),
(832,41,o),
(818,55,o),
(800,55,c),
(799,55,l),
(797,24,o),
(771,0,o),
(740,0,c),
(80,0,l),
(47,0,o),
(20,27,o),
(20,60,c),
(20,280,l),
(20,285,o),
(24,290,o),
(30,290,c),
(336,290,l),
(341,290,o),
(345,286,o),
(345,281,c),
(345,68,l),
(345,44,o),
(365,23,o),
(390,23,c),
(430,23,l),
(455,23,o),
(475,44,o),
(475,68,c),
(475,281,l),
(475,286,o),
(479,290,o),
(484,290,c),
(790,290,l),
(795,290,o),
(800,285,o),
(800,280,c),
(800,72,l),
(1062,72,l),
(1079,72,o),
(1092,59,o),
(1092,42,c)
);
}
);
width = 1112;
}
);
unicode = 1377;
},
{
glyphname = "ben-arm";
lastChange = "2024-09-19 09:46:41 +0000";
layers = (
{
layerId = m01;
shapes = (
{
closed = 1;
nodes = (
(475,253,l),
(475,261,o),
(468,267,o),
(460,267,c),
(359,267,l),
(355,267,o),
(351,266,o),
(349,263,c),
(346,260,o),
(345,257,o),
(345,253,c),
(345,102,l),
(740,102,l),
(773,102,o),
(800,75,o),
(800,42,c),
(800,40,l),
(800,34,o),
(795,30,o),
(790,30,c),
(485,30,l),
(479,30,o),
(475,34,o),
(475,40,c),
(475,64,l),
(475,72,o),
(468,79,o),
(460,79,c),
(359,79,l),
(355,79,o),
(351,77,o),
(349,75,c),
(346,72,o),
(345,68,o),
(345,64,c),
(345,10,l),
(345,5,o),
(340,0,o),
(335,0,c),
(30,0,l),
(24,0,o),
(20,5,o),
(20,10,c),
(20,231,l),
(20,264,o),
(46,290,o),
(80,290,c),
(740,290,l),
(773,290,o),
(800,264,o),
(800,231,c),
(800,156,l),
(800,150,o),
(795,146,o),
(790,146,c),
(485,146,l),
(479,146,o),
(475,150,o),
(475,156,c)
);
}
);
width = 820;
}
);
unicode = 1378;
},
{
glyphname = "gim-arm";
lastChange = "2024-09-19 09:46:48 +0000";
layers = (
{
layerId = m01;
shapes = (
{
closed = 1;
nodes = (
(474,156,l),
(474,147,o),
(470,139,o),
(465,133,c),
(459,127,o),
(451,124,o),
(442,124,c),
(377,124,l),
(368,124,o),
(359,127,o),
(354,133,c),
(348,139,o),
(344,147,o),
(344,156,c),
(344,235,l),
(344,244,o),
(348,252,o),
(354,258,c),
(359,264,o),
(368,267,o),
(377,267,c),
(442,267,l),
(451,267,o),
(459,264,o),
(465,258,c),
(470,252,o),
(474,244,o),
(474,235,c)
);
},
{
closed = 1;
nodes = (
(799,116,l),
(799,230,l),
(799,263,o),
(772,290,o),
(739,290,c),
(80,290,l),
(46,290,o),
(20,263,o),
(20,230,c),
(20,161,l),
(20,128,o),
(46,101,o),
(80,101,c),
(344,101,l),
(474,101,l),
(474,10,l),
(474,4,o),
(479,0,o),
(484,0,c),
(789,0,l),
(795,0,o),
(799,4,o),
(799,10,c),
(799,87,l),
(799,91,o),
(801,94,o),
(803,97,c),
(806,100,o),
(810,101,o),
(814,101,c),
(850,101,l),
(858,101,o),
(864,95,o),
(864,87,c),
(864,56,l),
(864,50,o),
(869,46,o),
(874,46,c),
(1080,46,l),
(1086,46,o),
(1090,50,o),
(1090,56,c),
(1090,86,l),
(1090,102,o),
(1077,116,o),
(1060,116,c)
);
}
);
width = 1110;
}
);
unicode = 1379;
},
{
glyphname = "da-arm";
lastChange = "2024-09-19 10:17:17 +0000";
layers = (
{
layerId = m01;
shapes = (
{
closed = 1;
nodes = (
(1091,71,l),
(1091,65,o),
(1087,61,o),
(1081,61,c),
(875,61,l),
(869,61,o),
(865,65,o),
(865,71,c),
(865,102,l),
(865,110,o),
(858,116,o),
(850,116,c),
(814,116,l),
(810,116,o),
(807,115,o),
(804,112,c),
(802,109,o),
(800,106,o),
(800,102,c),
(800,10,l),
(800,5,o),
(795,0,o),
(790,0,c),
(517,0,l),
(512,0,o),
(507,5,o),
(507,10,c),
(507,252,l),
(507,260,o),
(501,267,o),
(493,267,c),
(359,267,l),
(355,267,o),
(352,265,o),
(349,263,c),
(347,260,o),
(345,256,o),
(345,252,c),
(345,112,l),
(345,106,o),
(340,102,o),
(335,102,c),
(30,102,l),
(24,102,o),
(20,106,o),
(20,112,c),
(20,231,l),
(20,264,o),
(47,290,o),
(80,290,c),
(740,290,l),
(773,290,o),
(800,264,o),
(800,230,c),
(800,131,l),
(1061,131,l),
(1078,131,o),
(1091,117,o),
(1091,101,c)
);
}
);
width = 1111;
}
);
unicode = 1380;
},
{
glyphname = "ech-arm";
lastChange = "2024-09-19 10:17:25 +0000";
layers = (
{
layerId = m01;
shapes = (
{
closed = 1;
nodes = (
(475,161,l),
(475,168,o),
(473,174,o),
(470,179,c),
(468,181,o),
(467,183,o),
(465,184,c),
(460,190,o),
(451,194,o),
(442,194,c),
(359,194,l),
(355,194,o),
(352,192,o),
(349,190,c),
(347,187,o),
(345,183,o),
(345,179,c),
(345,38,l),
(345,30,o),
(351,23,o),
(359,23,c),
(460,23,l),
(464,23,o),
(468,25,o),
(471,28,c),
(473,30,o),
(475,34,o),
(475,38,c),
(475,77,l),
(475,82,o),
(479,87,o),
(485,87,c),
(757,87,l),
(763,87,o),
(767,82,o),
(767,77,c),
(767,60,l),
(767,27,o),
(741,0,o),
(707,0,c),
(345,0,l),
(80,0,l),
(47,0,o),
(20,27,o),
(20,60,c),
(20,280,l),
(20,285,o),
(24,290,o),
(30,290,c),
(336,290,l),
(341,290,o),
(345,286,o),
(345,281,c),
(345,217,l),
(707,217,l),
(741,217,o),
(767,190,o),
(767,157,c),
(767,155,l),
(767,149,o),
(763,145,o),
(757,145,c),
(485,145,l),
(479,145,o),
(475,149,o),
(475,155,c)
);
}
);
width = 787;
}
);
unicode = 1381;
},
{
glyphname = "za-arm";
lastChange = "2024-09-19 10:17:33 +0000";
layers = (
{
layerId = m01;
shapes = (
{
closed = 1;
nodes = (
(800,0,l),
(485,0,l),
(480,0,o),
(475,5,o),
(475,12,c),
(475,26,l),
(475,39,o),
(461,54,o),
(443,54,c),
(345,54,l),
(345,25,l),
(345,19,o),
(341,15,o),
(335,15,c),
(30,15,l),
(24,15,o),
(20,19,o),
(20,25,c),
(20,106,l),
(20,112,o),
(24,116,o),
(30,116,c),
(335,116,l),
(341,116,o),
(345,116,o),
(345,110,c),
(345,77,l),
(443,77,l),
(452,77,o),
(460,80,o),
(466,86,c),
(467,88,o),
(469,89,o),
(470,91,c),
(473,96,o),
(475,102,o),
(475,109,c),
(475,252,l),
(475,260,o),
(469,267,o),
(461,267,c),
(360,267,l),
(356,267,o),
(352,265,o),
(349,262,c),
(347,260,o),
(345,256,o),
(345,252,c),
(345,160,l),
(30,160,l),
(24,160,o),
(20,164,o),
(20,170,c),
(20,230,l),
(20,263,o),
(47,290,o),
(80,290,c),
(725,290,l),
(758,290,o),
(785,263,o),
(785,230,c),
(785,137,o),
(785,87,o),
(510,87,c),
(509,87,o),
(508,86,o),
(508,85,c),
(508,76,l),
(508,75,o),
(509,74,o),
(510,74,c),
(740,87,l),
(773,87,o),
(800,55,o),
(800,15,c)
);
}
);
width = 820;
}
);
unicode = 1382;
},
{
glyphname = "eh-arm";
lastChange = "2024-09-19 10:17:40 +0000";
layers = (
{
layerId = m01;
shapes = (
{
closed = 1;
nodes = (
(800,155,l),
(800,150,o),
(795,145,o),
(790,145,c),
(485,145,l),
(479,145,o),
(475,150,o),
(475,155,c),
(475,165,o),
(471,174,o),
(465,181,c),
(458,189,o),
(447,195,o),
(435,195,c),
(359,195,l),
(355,195,o),
(351,193,o),
(349,191,c),
(346,188,o),
(345,185,o),
(345,181,c),
(345,37,l),
(345,29,o),
(351,23,o),
(359,23,c),
(725,23,l),
(730,23,o),
(735,18,o),
(735,13,c),
(735,-19,l),
(735,-24,o),
(730,-29,o),
(725,-29,c),
(517,-29,l),
(511,-29,o),
(507,-24,o),
(507,-19,c),
(507,-14,l),
(507,-10,o),
(505,-7,o),
(503,-4,c),
(500,-2,o),
(497,0,o),
(493,0,c),
(30,0,l),
(24,0,o),
(20,5,o),
(20,10,c),
(20,280,l),
(20,286,o),
(24,290,o),
(30,290,c),
(335,290,l),
(340,290,o),
(345,286,o),
(345,280,c),
(345,218,l),
(740,218,l),
(773,218,o),
(800,191,o),
(800,158,c)
);
}
);
width = 820;
}
);
unicode = 1383;
},
{
glyphname = "et-arm";
lastChange = "2024-09-19 10:17:47 +0000";
layers = (
{
layerId = m01;
shapes = (
{
closed = 1;
nodes = (
(800,-19,l),
(800,-24,o),
(796,-29,o),
(790,-29,c),
(485,-29,l),
(479,-29,o),
(475,-24,o),
(475,-19,c),
(475,-13,l),
(475,-10,o),
(473,-7,o),
(471,-4,c),
(468,-2,o),
(465,0,o),
(461,0,c),
(20,0,l),
(20,240,l),
(20,268,o),
(42,290,o),
(70,290,c),
(739,290,l),
(772,290,o),
(799,263,o),
(799,230,c),
(799,97,l),
(799,92,o),
(795,87,o),
(789,87,c),
(485,87,l),
(480,87,o),
(475,92,o),
(475,97,c),
(475,252,l),
(475,260,o),
(469,267,o),
(461,267,c),
(360,267,l),
(356,267,o),
(352,265,o),
(349,262,c),
(347,260,o),
(345,256,o),
(345,252,c),
(345,37,l),
(345,28,o),
(351,23,o),
(360,23,c),
(790,23,l),
(796,23,o),
(800,18,o),
(800,13,c)
);
}
);
width = 820;
}
);
unicode = 1384;
},
{
glyphname = "to-arm";
lastChange = "2024-09-19 10:17:55 +0000";
layers = (
{
layerId = m01;
shapes = (
{
closed = 1;
nodes = (
(605,37,l),
(605,29,o),
(598,23,o),
(590,23,c),
(555,23,l),
(545,23,o),
(539,27,o),
(534,37,c),
(530,45,o),
(524,56,o),
(524,87,c),
(524,112,o),
(530,151,o),
(555,151,c),
(590,151,l),
(598,151,o),
(605,144,o),
(605,136,c)
);
},
{
closed = 1;
nodes = (
(930,174,l),
(930,230,l),
(930,263,o),
(903,290,o),
(870,290,c),
(80,290,l),
(47,290,o),
(20,263,o),
(20,230,c),
(20,10,l),
(20,5,o),
(24,0,o),
(30,0,c),
(335,0,l),
(340,0,o),
(345,5,o),
(345,10,c),
(345,202,l),
(345,220,o),
(352,236,o),
(364,248,c),
(376,259,o),
(392,267,o),
(410,267,c),
(540,267,l),
(558,267,o),
(574,259,o),
(586,248,c),
(598,236,o),
(605,220,o),
(605,202,c),
(605,174,l),
(470,174,l),
(437,174,o),
(410,147,o),
(410,114,c),
(410,60,l),
(410,27,o),
(437,0,o),
(470,0,c),
(540,0,l),
(605,0,l),
(870,0,l),
(903,0,o),
(930,27,o),
(930,60,c),
(930,151,l),
(951,151,l),
(963,151,o),
(995,142,o),
(995,112,c),
(995,106,o),
(999,102,o),
(1005,102,c),
(1180,102,l),
(1185,102,o),
(1190,106,o),
(1190,112,c),
(1190,114,l),
(1190,147,o),
(1163,174,o),
(1130,174,c)
);
}
);
width = 1210;
}
);
unicode = 1385;
},
{
glyphname = "zhe-arm";
lastChange = "2024-09-19 10:18:19 +0000";
layers = (
{
layerId = m01;
shapes = (
{
closed = 1;
nodes = (
(508,95,l),
(508,75,o),
(500,57,o),
(487,44,c),
(473,31,o),
(455,23,o),
(435,23,c),
(418,23,l),
(398,23,o),
(380,31,o),
(367,44,c),
(353,57,o),
(345,75,o),
(345,95,c),
(345,136,l),
(345,156,o),
(353,174,o),
(367,187,c),
(380,200,o),
(398,209,o),
(418,209,c),
(498,209,l),
(503,209,o),
(508,204,o),
(508,199,c)
);
},
{
closed = 1;
nodes = (
(833,232,l),
(833,280,l),
(833,286,o),
(828,290,o),
(823,290,c),
(518,290,l),
(512,290,o),
(508,286,o),
(508,280,c),
(508,232,l),
(80,232,l),
(47,232,o),
(20,205,o),
(20,172,c),
(20,60,l),
(20,27,o),
(47,0,o),
(80,0,c),
(773,0,l),
(806,0,o),
(833,27,o),
(833,60,c),
(833,209,l),
(854,209,l),
(878,209,o),
(898,190,o),
(898,165,c),
(898,160,o),
(902,155,o),
(908,155,c),
(1115,155,l),
(1121,155,o),
(1125,160,o),
(1125,165,c),
(1125,172,l),
(1125,205,o),
(1098,232,o),
(1065,232,c)
);
}
);
width = 1145;
}
);
unicode = 1386;
},
{
glyphname = "ini-arm";
lastChange = "2024-09-19 10:18:28 +0000";
layers = (
{
layerId = m01;
shapes = (
{
closed = 1;
nodes = (
(800,82,l),
(800,77,o),
(795,72,o),
(790,72,c),
(452,72,l),
(447,72,o),
(442,77,o),
(442,82,c),
(442,121,l),
(442,144,o),
(422,165,o),
(399,165,c),
(345,165,l),
(345,10,l),
(345,4,o),
(340,0,o),
(335,0,c),
(30,0,l),
(24,0,o),
(20,4,o),
(20,10,c),
(20,280,l),
(20,285,o),
(24,290,o),
(30,290,c),
(335,290,l),
(340,290,o),
(345,285,o),
(345,280,c),
(345,188,l),
(740,188,l),
(773,188,o),
(800,161,o),
(800,128,c)
);
}
);
width = 820;
}
);
unicode = 1387;
},
{
glyphname = "liwn-arm";
lastChange = "2024-09-19 10:18:36 +0000";
layers = (
{
layerId = m01;
shapes = (
{
closed = 1;
nodes = (
(637,-34,l),
(637,-39,o),
(633,-44,o),
(627,-44,c),
(420,-44,l),
(414,-44,o),
(410,-39,o),
(410,-34,c),
(410,-15,l),
(410,-11,o),
(408,-7,o),
(405,-5,c),
(403,-2,o),
(399,0,o),
(395,0,c),
(345,0,l),
(30,0,l),
(24,0,o),
(20,4,o),
(20,10,c),
(20,280,l),
(20,285,o),
(24,290,o),
(30,290,c),
(335,290,l),
(340,290,o),
(345,285,o),
(345,280,c),
(345,38,l),
(345,34,o),
(346,30,o),
(349,27,c),
(351,25,o),
(355,23,o),
(359,23,c),
(507,23,l),
(607,23,l),
(624,23,o),
(637,10,o),
(637,-7,c)
);
}
);
width = 657;
}
);
unicode = 1388;
},
{
glyphname = "xeh-arm";
lastChange = "2024-09-19 10:18:45 +0000";
layers = (
{
layerId = m01;
shapes = (
{
closed = 1;
nodes = (
(1157,60,l),
(1157,26,o),
(1130,0,o),
(1097,0,c),
(502,0,l),
(469,0,o),
(442,26,o),
(442,60,c),
(442,150,l),
(442,158,o),
(436,165,o),
(428,165,c),
(392,165,l),
(384,165,o),
(377,158,o),
(377,150,c),
(377,10,l),
(377,4,o),
(373,0,o),
(367,0,c),
(30,0,l),
(24,0,o),
(20,4,o),
(20,10,c),
(20,280,l),
(20,285,o),
(24,290,o),
(30,290,c),
(367,290,l),
(373,290,o),
(377,285,o),
(377,280,c),
(377,188,l),
(692,188,l),
(698,188,o),
(702,184,o),
(702,178,c),
(702,38,l),
(702,30,o),
(709,23,o),
(717,23,c),
(818,23,l),
(826,23,o),
(832,30,o),
(832,38,c),
(832,178,l),
(832,184,o),
(837,188,o),
(842,188,c),
(1147,188,l),
(1153,188,o),
(1157,184,o),
(1157,178,c)
);
}
);
width = 1177;
}
);
unicode = 1389;
},
{
glyphname = "ca-arm";
lastChange = "2024-09-19 10:18:56 +0000";
layers = (
{
layerId = m01;
shapes = (
{
closed = 1;
nodes = (
(605,57,l),
(605,45,o),
(600,34,o),
(592,26,c),
(584,19,o),
(573,14,o),
(561,14,c),
(518,14,l),
(494,14,o),
(475,33,o),
(475,57,c),
(475,173,l),
(475,185,o),
(480,196,o),
(487,204,c),
(495,212,o),
(506,217,o),
(518,217,c),
(561,217,l),
(585,217,o),
(605,197,o),
(605,173,c)
);
},
{
closed = 1;
nodes = (
(305,254,l),
(277,254,o),
(290,290,o),
(270,290,c),
(30,290,l),
(24,290,o),
(20,285,o),
(20,280,c),
(20,261,l),
(20,245,o),
(33,231,o),
(50,231,c),
(280,231,l),
(341,231,l),
(343,231,o),
(345,229,o),
(345,227,c),
(345,221,l),
(345,218,o),
(343,217,o),
(341,217,c),
(177,217,l),
(144,217,o),
(117,190,o),
(117,157,c),
(117,59,l),
(117,26,o),
(144,-1,o),
(177,-1,c),
(902,-1,l),
(935,-1,o),
(962,26,o),
(962,59,c),
(962,157,l),
(962,175,o),
(954,191,o),
(941,202,c),
(938,205,o),
(934,208,o),
(929,210,c),
(921,214,o),
(912,217,o),
(902,217,c),
(804,217,l),
(801,217,o),
(800,218,o),
(800,221,c),
(800,227,l),
(800,229,o),
(801,231,o),
(804,231,c),
(966,231,l),
(982,231,o),
(995,218,o),
(995,202,c),
(995,195,l),
(995,190,o),
(999,185,o),
(1005,185,c),
(1245,185,l),
(1251,185,o),
(1255,190,o),
(1255,195,c),
(1255,224,l),
(1255,240,o),
(1242,254,o),
(1225,254,c)
);
}
);
width = 1275;
}
);
unicode = 1390;
},
{
glyphname = "ken-arm";
lastChange = "2024-09-19 10:19:04 +0000";
layers = (
{
layerId = m01;
shapes = (
{
closed = 1;
nodes = (
(800,10,l),
(800,4,o),
(795,0,o),
(790,0,c),
(485,0,l),
(479,0,o),
(475,4,o),
(475,10,c),
(475,62,l),
(475,68,o),
(470,72,o),
(465,72,c),
(80,72,l),
(47,72,o),
(20,99,o),
(20,132,c),
(20,280,l),
(20,285,o),
(24,290,o),
(30,290,c),
(335,290,l),
(340,290,o),
(345,285,o),
(345,280,c),
(345,165,o),
(345,95,o),
(403,95,c),
(465,95,l),
(470,95,o),
(475,99,o),
(475,105,c),
(475,207,l),
(475,213,o),
(479,217,o),
(485,217,c),
(790,217,l),
(795,217,o),
(800,213,o),
(800,207,c)
);
}
);
width = 820;
}
);
unicode = 1391;
},
{
glyphname = "ho-arm";
lastChange = "2024-09-19 10:19:14 +0000";
layers = (
{
layerId = m01;
shapes = (
{
closed = 1;
nodes = (
(800,10,l),
(800,4,o),
(795,0,o),
(790,0,c),
(485,0,l),
(480,0,o),
(475,4,o),
(475,9,c),
(475,90,l),
(475,91,o),
(475,91,o),
(475,92,c),
(474,113,o),
(457,126,o),
(435,126,c),
(377,126,l),
(377,149,l),
(435,149,l),
(457,149,o),
(474,162,o),
(475,183,c),
(475,184,o),
(475,184,o),
(475,185,c),
(475,227,l),
(475,228,o),
(475,228,o),
(475,229,c),
(474,250,o),
(457,267,o),
(435,267,c),
(385,267,l),
(363,267,o),
(345,249,o),
(345,227,c),
(345,198,l),
(345,193,o),
(340,188,o),
(335,188,c),
(30,188,l),
(24,188,o),
(20,193,o),
(20,198,c),
(20,250,l),
(20,272,o),
(38,290,o),
(60,290,c),
(735,290,l),
(767,290,o),
(799,282,o),
(799,250,c),
(799,185,l),
(799,155,o),
(767,145,o),
(735,145,c),
(703,145,l),
(703,130,l),
(735,130,l),
(767,130,o),
(800,106,o),
(800,70,c)
);
}
);
width = 820;
}
);
unicode = 1392;
},
{
glyphname = "ja-arm";
lastChange = "2024-09-19 10:19:22 +0000";
layers = (
{
layerId = m01;
shapes = (
{
closed = 1;
nodes = (
(89,38,l),
(59,37,o),
(42,76,o),
(64,97,c),
(66,99,o),
(69,101,o),
(72,103,c),
(90,112,o),
(113,105,o),
(131,98,c),
(154,90,o),
(181,62,o),
(200,46,c),
(203,43,o),
(201,38,o),
(197,38,c)
);
},
{
closed = 1;
nodes = (
(750,40,o),
(801,59,o),
(801,101,c),
(801,232,l),
(801,265,o),
(770,290,o),
(736,290,c),
(81,290,l),
(29,288,o),
(17,243,o),
(21,198,c),
(21,193,o),
(26,188,o),
(31,188,c),
(336,188,l),
(342,188,o),
(346,193,o),
(346,198,c),
(346,223,o),
(342,265,o),
(386,267,c),
(386,267,o),
(436,267,o),
(436,267,c),
(459,267,o),
(477,249,o),
(476,227,c),
(476,227,o),
(476,145,o),
(476,145,c),
(476,96,l),
(476,92,o),
(472,91,o),
(470,93,c),
(429,130,l),
(418,139,o),
(403,145,o),
(389,145,c),
(79,145,l),
(30,143,o),
(17,101,o),
(21,58,c),
(21,20,o),
(56,-5,o),
(92,0,c),
(92,0,o),
(375,0,o),
(375,0,c),
(377,0,o),
(380,0,o),
(383,2,c),
(439,27,l),
(442,28,o),
(445,28,o),
(448,25,c),
(474,2,l),
(475,1,o),
(478,0,o),
(480,0,c),
(797,0,l),
(800,0,o),
(801,2,o),
(801,4,c),
(801,25,l),
(801,27,o),
(800,29,o),
(797,29,c),
(723,29,l),
(720,29,o),
(720,32,o),
(722,33,c)
);
}
);
width = 821;
}
);
unicode = 1393;
},
{
glyphname = "ghad-arm";
lastChange = "2024-09-19 10:19:31 +0000";
layers = (
{
layerId = m01;
shapes = (
{
closed = 1;
nodes = (
(1092,-34,l),
(1092,-39,o),
(1088,-44,o),
(1082,-44,c),
(875,-44,l),
(869,-44,o),
(865,-39,o),
(865,-34,c),
(865,-15,l),
(865,-11,o),
(863,-7,o),
(860,-4,c),
(858,-2,o),
(854,0,o),
(850,0,c),
(800,0,l),
(485,0,l),
(479,0,o),
(475,4,o),
(475,10,c),
(475,238,l),
(475,254,o),
(462,267,o),
(446,267,c),
(373,267,l),
(365,267,o),
(358,264,o),
(353,259,c),
(348,254,o),
(345,246,o),
(345,238,c),
(345,126,l),
(345,120,o),
(340,116,o),
(335,116,c),
(30,116,l),
(24,116,o),
(20,120,o),
(20,126,c),
(20,230,l),
(20,263,o),
(46,290,o),
(80,290,c),
(740,290,l),
(773,290,o),
(800,263,o),
(800,230,c),
(800,23,l),
(1062,23,l),
(1079,23,o),
(1092,10,o),
(1092,-7,c)
);
}
);
width = 1112;
}
);
unicode = 1394;
},
{
glyphname = "cheh-arm";
lastChange = "2024-09-19 10:19:41 +0000";
layers = (
{
layerId = m01;
shapes = (
{
closed = 1;
nodes = (
(387,29,l),
(382,29,o),
(377,33,o),
(377,39,c),
(377,162,l),
(377,174,o),
(383,184,o),
(393,191,c),
(404,198,o),
(418,203,o),
(435,203,c),
(440,203,o),
(445,202,o),
(450,200,c),
(459,198,o),
(467,194,o),
(475,189,c),
(500,172,o),
(516,143,o),
(516,111,c),
(516,39,l),
(516,33,o),
(511,29,o),
(506,29,c)
);
},
{
closed = 1;
nodes = (
(560,212,l),
(555,213,o),
(556,219,o),
(560,220,c),
(772,243,l),
(787,245,o),
(799,258,o),
(799,273,c),
(799,280,l),
(799,285,o),
(794,290,o),
(789,290,c),
(544,290,l),
(541,290,o),
(540,288,o),
(540,286,c),
(538,256,o),
(513,232,o),
(482,232,c),
(223,288,l),
(219,289,o),
(215,285,o),
(215,281,c),
(215,278,o),
(217,275,o),
(220,274,c),
(371,234,l),
(374,233,o),
(377,229,o),
(377,225,c),
(377,221,o),
(374,217,o),
(369,216,c),
(72,181,l),
(42,177,o),
(20,151,o),
(20,121,c),
(20,60,l),
(20,26,o),
(47,0,o),
(80,0,c),
(790,0,l),
(795,0,o),
(800,4,o),
(800,10,c),
(800,99,l),
(800,126,o),
(782,150,o),
(756,157,c)
);
}
);
width = 820;
}
);
unicode = 1395;
},
{
glyphname = "men-arm";
lastChange = "2024-09-19 10:19:48 +0000";
layers = (
{
layerId = m01;
shapes = (
{
closed = 1;
nodes = (
(1098,227,l),
(1098,222,o),
(1094,217,o),
(1088,217,c),
(848,217,l),
(843,217,o),
(838,222,o),
(838,227,c),
(838,235,l),
(838,269,o),
(810,266,o),
(800,266,c),
(800,60,l),
(800,27,o),
(773,0,o),
(740,0,c),
(80,0,l),
(47,0,o),
(20,27,o),
(20,60,c),
(20,280,l),
(20,285,o),
(24,290,o),
(30,290,c),
(336,290,l),
(341,290,o),
(345,286,o),
(345,281,c),
(345,68,l),
(345,43,o),
(365,23,o),
(390,23,c),
(430,23,l),
(454,23,o),
(474,43,o),
(475,67,c),
(475,67,o),
(475,68,o),
(475,68,c),
(475,72,l),
(475,280,l),
(475,285,o),
(479,290,o),
(485,290,c),
(1068,290,l),
(1085,290,o),
(1098,276,o),
(1098,260,c)
);
}
);
width = 1118;
}
);
unicode = 1396;
},
{
glyphname = "yi-arm";
lastChange = "2024-09-19 10:19:57 +0000";
layers = (
{
layerId = m01;
shapes = (
{
closed = 1;
nodes = (
(704,140,l),
(773,140,o),
(796,140,o),
(798,95,c),
(798,47,o),
(807,0,o),
(748,0,c),
(748,0,o),
(81,0,o),
(81,0,c),
(29,2,o),
(17,47,o),
(21,91,c),
(21,97,o),
(26,101,o),
(31,101,c),
(336,101,l),
(364,100,o),
(319,31,o),
(384,23,c),
(385,23,o),
(437,23,o),
(438,23,c),
(486,26,o),
(475,67,o),
(476,100,c),
(476,107,o),
(474,113,o),
(471,119,c),
(455,144,o),
(433,139,o),
(346,140,c),
(346,163,l),
(456,163,l),
(467,163,o),
(476,172,o),
(476,183,c),
(476,196,o),
(486,267,o),
(436,267,c),
(383,267,o),
(346,273,o),
(346,229,c),
(346,226,o),
(346,200,o),
(346,198,c),
(346,192,o),
(341,188,o),
(336,188,c),
(31,188,l),
(26,188,o),
(21,193,o),
(21,198,c),
(22,232,o),
(11,288,o),
(61,290,c),
(61,290,o),
(751,290,o),
(751,290,c),
(779,290,o),
(801,267,o),
(801,240,c),
(802,162,o),
(773,162,o),
(704,162,c)
);
}
);
width = 821;
}
);
unicode = 1397;
},
{
glyphname = "now-arm";
lastChange = "2024-09-19 10:20:06 +0000";
layers = (
{
layerId = m01;
shapes = (
{
closed = 1;
nodes = (
(1098,145,l),
(1098,60,l),
(1098,27,o),
(1072,0,o),
(1038,0,c),
(378,0,l),
(345,0,o),
(318,27,o),
(318,60,c),
(318,217,l),
(50,217,l),
(34,217,o),
(20,231,o),
(20,247,c),
(20,280,l),
(20,285,o),
(25,290,o),
(30,290,c),
(270,290,l),
(276,290,o),
(280,285,o),
(280,280,c),
(280,267,l),
(280,249,o),
(295,234,o),
(313,234,c),
(633,234,l),
(639,234,o),
(643,230,o),
(643,224,c),
(643,68,l),
(643,43,o),
(664,23,o),
(688,23,c),
(728,23,l),
(753,23,o),
(773,43,o),
(773,68,c),
(773,135,l),
(773,140,o),
(778,145,o),
(783,145,c)
);
}
);
width = 1118;
}
);
unicode = 1398;
},
{
glyphname = "sha-arm";
lastChange = "2024-09-19 10:20:16 +0000";
layers = (
{
layerId = m01;
shapes = (
{
closed = 1;
nodes = (
(507,168,l),
(507,179,o),
(498,188,o),
(487,188,c),
(385,188,l),
(363,188,o),
(345,171,o),
(345,149,c),
(345,149,o),
(345,149,o),
(345,148,c),
(345,69,l),
(345,68,o),
(345,68,o),
(345,68,c),
(345,46,o),
(363,29,o),
(385,29,c),
(487,29,l),
(504,29,o),
(517,42,o),
(517,59,c),
(517,97,l),
(517,99,o),
(519,101,o),
(521,101,c),
(789,101,l),
(794,101,o),
(799,97,o),
(799,91,c),
(799,60,l),
(799,27,o),
(772,0,o),
(739,0,c),
(80,0,l),
(46,0,o),
(20,27,o),
(20,60,c),
(20,157,l),
(20,190,o),
(46,217,o),
(80,217,c),
(345,217,l),
(467,217,l),
(471,217,o),
(475,221,o),
(475,225,c),
(475,229,o),
(471,232,o),
(467,232,c),
(50,232,l),
(33,232,o),
(20,245,o),
(20,262,c),
(20,280,l),
(20,285,o),
(24,290,o),
(30,290,c),
(341,290,l),
(343,290,o),
(345,288,o),
(345,286,c),
(345,265,l),
(345,263,o),
(346,261,o),
(349,261,c),
(770,261,l),
(786,261,o),
(800,247,o),
(800,231,c),
(800,169,l),
(800,164,o),
(795,159,o),
(790,159,c),
(511,159,l),
(509,159,o),
(507,161,o),
(507,163,c)
);
}
);
width = 820;
}
);
unicode = 1399;
},
{
glyphname = "vo-arm";
lastChange = "2024-09-19 10:20:23 +0000";
layers = (
{
layerId = m01;
shapes = (
{
closed = 1;
nodes = (
(800,10,l),
(800,4,o),
(796,0,o),
(790,0,c),
(484,0,l),
(479,0,o),
(475,4,o),
(475,9,c),
(475,222,l),
(475,247,o),
(455,267,o),
(430,267,c),
(390,267,l),
(366,267,o),
(346,248,o),
(345,223,c),
(345,223,o),
(345,223,o),
(345,222,c),
(345,218,l),
(345,10,l),
(345,4,o),
(341,0,o),
(335,0,c),
(30,0,l),
(25,0,o),
(20,4,o),
(20,10,c),
(20,230,l),
(20,263,o),
(47,290,o),
(80,290,c),
(740,290,l),
(773,290,o),
(800,263,o),
(800,230,c)
);
}
);
width = 820;
}
);
unicode = 1400;
},
{
glyphname = "cha-arm";
lastChange = "2024-09-19 10:20:30 +0000";
layers = (
{
layerId = m01;
shapes = (
{
closed = 1;
nodes = (
(800,161,l),
(800,143,o),
(788,127,o),
(771,122,c),
(540,58,l),
(498,58,l),
(540,46,l),
(688,4,l),
(691,3,o),
(690,0,o),
(688,0,c),
(379,0,l),
(378,0,o),
(377,0,o),
(376,0,c),
(34,97,l),
(31,98,o),
(32,101,o),
(34,101,c),
(343,101,l),
(344,101,o),
(345,101,o),
(346,101,c),
(410,83,l),
(436,75,l),
(444,78,o),
(452,83,o),
(458,89,c),
(468,100,o),
(475,114,o),
(475,130,c),
(475,224,l),
(475,248,o),
(455,267,o),
(431,267,c),
(388,267,l),
(376,267,o),
(365,262,o),
(358,255,c),
(350,247,o),
(345,236,o),
(345,224,c),
(345,169,l),
(345,164,o),
(340,159,o),
(335,159,c),
(30,159,l),
(24,159,o),
(20,164,o),
(20,169,c),
(20,250,l),
(20,272,o),
(38,290,o),
(60,290,c),
(760,290,l),
(782,290,o),
(800,272,o),
(800,250,c)
);
}
);
width = 820;
}
);
unicode = 1401;
},
{
glyphname = "peh-arm";
lastChange = "2024-09-19 10:20:36 +0000";
layers = (
{
layerId = m01;
shapes = (
{
closed = 1;
nodes = (
(800,10,l),
(800,4,o),
(795,0,o),
(790,0,c),
(517,0,l),
(512,0,o),
(507,4,o),
(507,10,c),
(507,238,l),
(507,254,o),
(494,267,o),
(478,267,c),
(471,267,l),
(463,267,o),
(456,264,o),
(451,259,c),
(446,254,o),
(443,246,o),
(442,239,c),
(442,238,o),
(442,238,o),
(442,238,c),
(442,99,l),
(442,94,o),
(438,89,o),
(432,89,c),
(322,89,l),
(317,89,o),
(312,94,o),
(312,99,c),
(312,238,l),
(312,254,o),
(299,267,o),
(283,267,c),
(276,267,l),
(268,267,o),
(261,264,o),
(256,259,c),
(251,253,o),
(247,246,o),
(247,238,c),
(247,201,l),
(247,195,o),
(243,191,o),
(237,191,c),
(30,191,l),
(24,191,o),
(20,195,o),
(20,201,c),
(20,232,l),
(20,265,o),
(47,290,o),
(80,290,c),
(740,290,l),
(773,290,o),
(800,265,o),
(800,232,c)
);
}
);
width = 820;
}
);
unicode = 1402;
},
{
glyphname = "jheh-arm";
lastChange = "2024-09-19 10:20:43 +0000";
layers = (
{
layerId = m01;
shapes = (
{
closed = 1;
nodes = (
(475,68,l),
(475,66,o),
(473,64,o),
(471,64,c),
(463,64,l),
(461,64,o),
(459,66,o),
(459,69,c),
(459,132,o),
(402,150,o),
(394,152,c),
(342,163,o),
(345,195,o),
(345,209,c),
(345,251,o),
(372,267,o),
(396,267,c),
(437,267,l),
(458,267,o),
(475,250,o),
(475,229,c)
);
},
{
closed = 1;
nodes = (
(702,70,l),
(757,72,o),
(800,116,o),
(800,170,c),
(800,250,l),
(800,272,o),
(782,290,o),
(760,290,c),
(475,290,l),
(60,290,l),
(38,290,o),
(20,272,o),
(20,250,c),
(20,185,l),
(20,163,o),
(38,145,o),
(60,145,c),
(306,145,l),
(320,145,o),
(333,144,o),
(345,143,c),
(348,143,o),
(351,142,o),
(355,141,c),
(447,126,o),
(445,81,o),
(443,68,c),
(443,66,o),
(441,64,o),
(439,64,c),
(349,64,l),
(346,64,o),
(345,66,o),
(345,68,c),
(345,82,l),
(345,85,o),
(342,87,o),
(340,87,c),
(25,87,l),
(22,87,o),
(20,85,o),
(20,82,c),
(20,20,l),
(20,17,o),
(22,15,o),
(25,15,c),
(340,15,l),
(342,15,o),
(345,17,o),
(345,20,c),
(345,37,l),
(345,39,o),
(346,41,o),
(349,41,c),
(471,41,l),
(473,41,o),
(475,39,o),
(475,37,c),
(475,5,l),
(475,3,o),
(477,0,o),
(480,0,c),
(795,0,l),
(797,0,o),
(800,3,o),
(800,5,c),
(800,18,l),
(800,40,o),
(782,58,o),
(760,58,c),
(540,58,l),
(540,65,l)
);
}
);
width = 820;
}
);
unicode = 1403;
},
{
glyphname = "ra-arm";
lastChange = "2024-09-19 10:20:56 +0000";
layers = (
{
layerId = m01;
shapes = (
{
closed = 1;
nodes = (
(1098,83,l),
(1098,77,o),
(1094,73,o),
(1088,73,c),
(848,73,l),
(842,73,o),
(838,77,o),
(838,83,c),
(838,90,l),
(838,108,o),
(823,122,o),
(806,122,c),
(800,122,l),
(800,10,l),
(800,5,o),
(795,0,o),
(790,0,c),
(484,0,l),
(479,0,o),
(475,4,o),
(475,9,c),
(475,222,l),
(475,247,o),
(455,267,o),
(430,267,c),
(390,267,l),
(365,267,o),
(345,247,o),
(345,222,c),
(345,10,l),
(345,5,o),
(340,0,o),
(335,0,c),
(20,0,l),
(20,230,l),
(20,263,o),
(47,290,o),
(80,290,c),
(740,290,l),
(773,290,o),
(800,263,o),
(800,230,c),
(800,145,l),
(1068,145,l),
(1085,145,o),
(1098,132,o),
(1098,115,c)
);
}
);
width = 1118;
}
);
unicode = 1404;
},
{
glyphname = "seh-arm";
lastChange = "2024-09-19 10:21:08 +0000";
layers = (
{
layerId = m01;
shapes = (
{
closed = 1;
nodes = (
(800,290,l),
(800,60,l),
(800,27,o),
(773,0,o),
(740,0,c),
(80,0,l),
(47,0,o),
(20,27,o),
(20,60,c),
(20,280,l),
(20,286,o),
(25,290,o),
(30,290,c),
(336,290,l),
(341,290,o),
(345,286,o),
(345,281,c),
(345,69,l),
(345,44,o),
(365,24,o),
(390,24,c),
(430,24,l),
(455,24,o),
(475,43,o),
(475,67,c),
(475,68,o),
(475,68,o),
(475,69,c),
(475,73,l),
(475,280,l),
(475,286,o),
(480,290,o),
(485,290,c)
);
}
);
width = 820;
}
);
unicode = 1405;
},
{
glyphname = "vew-arm";
lastChange = "2024-09-19 10:21:16 +0000";
layers = (
{
layerId = m01;
shapes = (
{
closed = 1;
nodes = (
(1060,3,o),
(1065,-29,o),
(1050,-29,c),
(1050,-29,o),
(842,-29,o),
(842,-29,c),
(837,-29,o),
(832,-24,o),
(832,-19,c),
(833,-10,o),
(828,0,o),
(818,0,c),
(818,0,o),
(670,0,o),
(670,0,c),
(485,0,l),
(479,0,o),
(475,5,o),
(475,10,c),
(475,73,l),
(80,73,l),
(46,73,o),
(20,100,o),
(20,133,c),
(20,213,l),
(20,215,o),
(22,218,o),
(25,218,c),
(340,218,l),
(342,218,o),
(345,215,o),
(345,213,c),
(349,174,o),
(326,97,o),
(388,96,c),
(388,96,o),
(455,96,o),
(455,96,c),
(466,96,o),
(475,105,o),
(475,116,c),
(475,280,l),
(475,286,o),
(479,290,o),
(485,290,c),
(790,290,l),
(795,290,o),
(800,286,o),
(800,280,c),
(800,23,l),
(1050,23,l),
(1055,23,o),
(1060,18,o),
(1060,13,c)
);
}
);
width = 1080;
}
);
unicode = 1406;
},
{
glyphname = "tiwn-arm";
lastChange = "2024-09-19 10:21:22 +0000";
layers = (
{
layerId = m01;
shapes = (
{
closed = 1;
nodes = (
(805,37,o),
(780,0,o),
(740,0,c),
(740,0,o),
(60,0,o),
(60,0,c),
(38,0,o),
(20,18,o),
(20,40,c),
(20,126,l),
(20,128,o),
(22,131,o),
(25,131,c),
(340,131,l),
(343,131,o),
(345,128,o),
(345,126,c),
(345,69,l),
(345,47,o),
(363,29,o),
(385,29,c),
(419,30,o),
(473,19,o),
(475,69,c),
(475,90,o),
(478,118,o),
(457,130,c),
(428,160,o),
(96,188,o),
(54,198,c),
(29,202,o),
(17,226,o),
(20,250,c),
(20,272,o),
(38,290,o),
(60,290,c),
(739,290,l),
(785,289,o),
(804,249,o),
(799,208,c),
(799,205,o),
(797,203,o),
(794,203,c),
(480,203,l),
(477,203,o),
(475,205,o),
(475,208,c),
(479,271,o),
(429,261,o),
(385,261,c),
(363,261,o),
(345,243,o),
(345,221,c),
(345,203,o),
(359,187,o),
(377,184,c),
(748,135,l),
(778,131,o),
(800,105,o),
(800,75,c)
);
}
);
width = 821;
}
);
unicode = 1407;
},
{
glyphname = "reh-arm";
lastChange = "2024-09-19 10:21:30 +0000";
layers = (
{
layerId = m01;
shapes = (
{
closed = 1;
nodes = (
(799,97,l),
(799,92,o),
(794,87,o),
(789,87,c),
(485,87,l),
(479,87,o),
(475,92,o),
(475,97,c),
(475,252,l),
(475,260,o),
(468,267,o),
(460,267,c),
(359,267,l),
(353,267,o),
(345,261,o),
(345,252,c),
(345,0,l),
(20,0,l),
(20,240,l),
(20,268,o),
(42,290,o),
(70,290,c),
(739,290,l),
(772,290,o),
(799,263,o),
(799,230,c)
);
}
);
width = 819;
}
);
unicode = 1408;
},
{
glyphname = "co-arm";
lastChange = "2024-09-19 10:21:37 +0000";
layers = (
{
layerId = m01;
shapes = (
{
closed = 1;
nodes = (
(362,257,o),
(371,261,o),
(381,261,c),
(438,261,l),
(458,261,o),
(475,245,o),
(475,225,c),
(475,215,o),
(471,206,o),
(464,199,c),
(464,199,o),
(463,198,o),
(463,198,c),
(456,192,o),
(448,189,o),
(438,189,c),
(381,189,l),
(372,189,o),
(363,192,o),
(357,198,c),
(350,205,o),
(345,214,o),
(345,225,c),
(345,235,o),
(349,244,o),
(356,251,c)
);
},
{
closed = 1;
nodes = (
(749,185,l),
(777,185,o),
(800,208,o),
(800,236,c),
(800,239,l),
(800,267,o),
(777,290,o),
(749,290,c),
(70,290,l),
(42,290,o),
(20,267,o),
(20,239,c),
(20,236,l),
(20,208,o),
(42,185,o),
(70,185,c),
(115,185,l),
(116,185,o),
(117,184,o),
(117,183,c),
(117,180,l),
(117,179,o),
(116,178,o),
(115,178,c),
(70,178,l),
(45,178,o),
(24,159,o),
(20,135,c),
(20,133,o),
(22,131,o),
(24,131,c),
(344,131,l),
(346,131,o),
(347,131,o),
(347,133,c),
(353,148,o),
(367,160,o),
(385,160,c),
(435,160,l),
(457,160,o),
(475,142,o),
(475,120,c),
(475,70,l),
(475,48,o),
(457,30,o),
(435,30,c),
(385,30,l),
(363,30,o),
(345,48,o),
(345,70,c),
(345,99,l),
(345,100,o),
(344,102,o),
(342,102,c),
(24,102,l),
(22,102,o),
(20,100,o),
(20,98,c),
(20,51,l),
(20,23,o),
(42,0,o),
(70,0,c),
(749,0,l),
(777,0,o),
(800,23,o),
(800,51,c),
(800,127,l),
(800,155,o),
(777,178,o),
(749,178,c),
(704,178,l),
(703,178,o),
(702,179,o),
(702,180,c),
(702,183,l),
(702,184,o),
(703,185,o),
(704,185,c)
);
}
);
width = 820;
}
);
unicode = 1409;
},
{
glyphname = "yiwn-arm";
lastChange = "2024-09-19 10:21:43 +0000";
layers = (
{
layerId = m01;
shapes = (
{
closed = 1;
nodes = (
(865,160,l),
(865,145,l),
(495,145,l),
(485,145,o),
(476,153,o),
(475,163,c),
(473,179,o),
(456,195,o),
(435,195,c),
(360,195,l),
(349,195,o),
(345,186,o),
(345,181,c),
(345,10,l),
(345,5,o),
(341,0,o),
(335,0,c),
(30,0,l),
(25,0,o),
(20,5,o),
(20,10,c),
(20,280,l),
(20,286,o),
(25,290,o),
(30,290,c),
(335,290,l),
(341,290,o),
(345,286,o),
(345,280,c),
(345,222,l),
(345,219,o),
(347,218,o),
(349,218,c),
(760,218,l),
(782,218,o),
(800,200,o),
(800,178,c),
(800,174,l),
(800,170,o),
(802,167,o),
(805,164,c),
(807,161,o),
(811,160,o),
(815,160,c)
);
}
);
width = 885;
}
);
unicode = 1410;
},
{
glyphname = "piwr-arm";
lastChange = "2024-09-19 10:21:54 +0000";
layers = (
{
layerId = m01;
shapes = (
{
closed = 1;
nodes = (
(865,107,l),
(865,85,o),
(848,67,o),
(825,67,c),
(778,67,l),
(772,67,o),
(768,71,o),
(768,77,c),
(768,214,l),
(768,219,o),
(772,224,o),
(778,224,c),
(825,224,l),
(848,224,o),
(865,206,o),
(865,184,c)
);
},
{
closed = 1;
nodes = (
(443,77,l),
(443,71,o),
(439,67,o),
(433,67,c),
(385,67,l),
(363,67,o),
(345,85,o),
(345,107,c),
(345,178,l),
(345,206,o),
(363,224,o),
(385,224,c),
(433,224,l),
(439,224,o),
(443,219,o),
(443,214,c)
);
},
{
closed = 1;
nodes = (
(768,247,l),
(768,280,l),
(768,286,o),
(764,290,o),
(758,290,c),
(453,290,l),
(447,290,o),
(443,286,o),
(443,280,c),
(443,247,l),
(60,247,l),
(38,247,o),
(20,229,o),
(20,207,c),
(20,84,l),
(20,62,o),
(38,44,o),
(60,44,c),
(443,44,l),
(443,10,l),
(443,5,o),
(447,0,o),
(453,0,c),
(758,0,l),
(764,0,o),
(768,5,o),
(768,10,c),
(768,44,l),
(1150,44,l),
(1173,44,o),
(1190,62,o),
(1190,84,c),
(1190,207,l),
(1190,229,o),
(1173,247,o),
(1150,247,c)
);
}
);
width = 1210;
}
);
unicode = 1411;
},
{
glyphname = "keh-arm";
lastChange = "2024-09-19 10:22:34 +0000";
layers = (
{
layerId = m01;
shapes = (
{
closed = 1;
nodes = (
(540,238,l),
(540,253,o),
(554,267,o),
(569,267,c),
(641,267,l),
(657,267,o),
(670,254,o),
(670,238,c),
(670,197,l),
(670,180,o),
(658,168,o),
(641,168,c),
(550,168,l),
(545,168,o),
(540,172,o),
(540,178,c)
);
},
{
closed = 1;
nodes = (
(544,116,l),
(542,116,o),
(540,118,o),
(540,120,c),
(540,141,l),
(540,143,o),
(542,145,o),
(544,145,c),
(946,145,l),
(973,145,o),
(995,167,o),
(995,194,c),
(995,241,l),
(995,268,o),
(973,290,o),
(946,290,c),
(265,290,l),
(238,290,o),
(215,268,o),
(215,240,c),
(215,120,l),
(215,118,o),
(214,116,o),
(211,116,c),
(23,116,l),
(22,116,o),
(20,115,o),
(20,113,c),
(20,96,l),
(20,94,o),
(22,93,o),
(23,93,c),
(211,93,l),
(214,93,o),
(215,91,o),
(215,89,c),
(215,10,l),
(215,5,o),
(220,0,o),
(225,0,c),
(530,0,l),
(536,0,o),
(540,5,o),
(540,10,c),
(540,89,l),
(540,91,o),
(542,93,o),
(544,93,c),
(818,93,l),
(842,93,o),
(824,73,o),
(843,73,c),
(1050,73,l),
(1056,73,o),
(1060,77,o),
(1060,83,c),
(1060,106,l),
(1060,112,o),
(1056,116,o),
(1050,116,c)
);
}
);
width = 1080;
}
);
unicode = 1412;
},
{
glyphname = "oh-arm";
lastChange = "2024-09-19 10:22:41 +0000";
layers = (
{
layerId = m01;
shapes = (
{
closed = 1;
nodes = (
(475,217,l),
(475,73,l),
(475,69,l),
(475,68,o),
(475,68,o),
(475,68,c),
(474,43,o),
(454,24,o),
(430,24,c),
(390,24,l),
(365,24,o),
(345,44,o),
(345,69,c),
(345,221,l),
(345,246,o),
(365,266,o),
(390,266,c),
(430,266,l),
(454,266,o),
(474,247,o),
(475,223,c),
(475,222,o),
(475,222,o),
(475,221,c)
);
},
{
closed = 1;
nodes = (
(80,290,l),
(47,290,o),
(20,263,o),
(20,230,c),
(20,60,l),
(20,27,o),
(47,0,o),
(80,0,c),
(740,0,l),
(773,0,o),
(800,27,o),
(800,60,c),
(800,230,l),
(800,263,o),
(773,290,o),
(740,290,c)
);
}
);
width = 820;
}
);
unicode = 1413;
},
{
glyphname = "feh-arm";
lastChange = "2024-09-19 10:22:47 +0000";
layers = (
{
layerId = m01;
shapes = (
{
closed = 1;
nodes = (
(865,66,l),
(865,42,o),
(845,23,o),
(821,23,c),
(787,23,l),
(776,23,o),
(767,32,o),
(767,43,c),
(767,154,l),
(767,165,o),
(776,174,o),
(787,174,c),
(821,174,l),
(845,174,o),
(865,154,o),
(865,130,c)
);
},
{
closed = 1;
nodes = (
(442,217,l),
(442,206,o),
(433,197,o),
(422,197,c),
(388,197,l),
(364,197,o),
(345,208,o),
(345,232,c),
(345,256,o),
(364,267,o),
(388,267,c),
(422,267,l),
(433,267,o),
(442,258,o),
(442,247,c)
);
},
{
closed = 1;
nodes = (
(772,197,l),
(769,197,o),
(767,199,o),
(767,202,c),
(767,280,l),
(767,286,o),
(763,290,o),
(757,290,c),
(125,290,l),
(103,290,o),
(85,272,o),
(85,250,c),
(85,214,l),
(85,192,o),
(103,174,o),
(125,174,c),
(437,174,l),
(440,174,o),
(442,172,o),
(442,169,c),
(442,43,l),
(442,32,o),
(434,23,o),
(423,23,c),
(378,23,l),
(360,23,o),
(345,38,o),
(345,57,c),
(345,135,l),
(345,141,o),
(340,145,o),
(335,145,c),
(30,145,l),
(24,145,o),
(20,141,o),
(20,135,c),
(20,50,l),
(20,23,o),
(42,0,o),
(70,0,c),
(1110,0,l),
(1154,0,o),
(1190,36,o),
(1190,80,c),
(1190,109,l),
(1190,153,o),
(1154,197,o),
(1110,197,c)
);
}
);
width = 1210;
}
);
unicode = 1414;
},
{
glyphname = "ech_yiwn-arm";
lastChange = "2024-09-19 10:49:35 +0000";
layers = (
{
layerId = m01;
shapes = (
{
closed = 1;
nodes = (
(1093,-19,l),
(1093,-25,o),
(1088,-29,o),
(1083,-29,c),
(875,-29,l),
(870,-29,o),
(865,-25,o),
(865,-19,c),
(865,-15,l),
(865,-11,o),
(863,-7,o),
(861,-4,c),
(858,-2,o),
(855,0,o),
(851,0,c),
(800,0,l),
(80,0,l),
(47,0,o),
(20,27,o),
(20,60,c),
(20,280,l),
(20,285,o),
(25,290,o),
(30,290,c),
(335,290,l),
(341,290,o),
(345,285,o),
(345,280,c),
(345,68,l),
(345,44,o),
(365,23,o),
(390,23,c),
(430,23,l),
(455,23,o),
(475,44,o),
(475,68,c),
(475,207,l),
(475,213,o),
(480,217,o),
(485,217,c),
(790,217,l),
(796,217,o),
(800,213,o),
(800,207,c),
(800,28,l),
(800,26,o),
(802,23,o),
(805,23,c),
(865,23,l),
(1083,23,l),
(1088,23,o),
(1093,19,o),
(1093,13,c)
);
}
);
width = 1113;
}
);
unicode = 1415;
},
{
glyphname = "apostrophe-arm";
lastChange = "2024-09-16 19:10:20 +0000";
layers = (
{
layerId = m01;
shapes = (
{
closed = 1;
nodes = (
(180,135,l),
(180,132,o),
(177,130,o),
(175,130,c),
(120,130,l),
(117,130,o),
(115,132,o),
(115,135,c),
(115,188,l),
(115,204,o),
(102,217,o),
(86,217,c),
(55,217,l),
(52,217,o),
(50,219,o),
(50,222,c),
(50,284,l),
(50,287,o),
(52,289,o),
(55,289,c),
(175,289,l),
(177,289,o),
(180,287,o),
(180,284,c)
);
}
);
width = 230;
}
);
unicode = 1370;
},
{
glyphname = "emphasis-arm";
lastChange = "2024-09-16 19:08:04 +0000";
layers = (
{
layerId = m01;
shapes = (
{
closed = 1;
nodes = (
(53,193,l),
(49,197,o),
(49,203,o),
(53,207,c),
(142,295,l),
(145,299,o),
(152,299,o),
(156,295,c),
(187,264,l),
(191,260,o),
(191,253,o),
(187,249,c),
(99,161,l),
(95,157,o),
(89,157,o),
(85,161,c)
);
}
);
width = 240;
}
);
unicode = 1371;
},
{
glyphname = "exclam-arm";
lastChange = "2024-09-16 19:09:53 +0000";
layers = (
{
layerId = m01;
shapes = (
{
closed = 1;
nodes = (
(245,237,l),
(245,226,o),
(236,217,o),
(225,217,c),
(125,217,l),
(119,217,o),
(115,213,o),
(115,207,c),
(115,179,l),
(115,176,o),
(112,174,o),
(110,174,c),
(55,174,l),
(52,174,o),
(50,176,o),
(50,179,c),
(50,226,l),
(50,237,o),
(59,246,o),
(70,246,c),
(170,246,l),
(175,246,o),
(180,251,o),
(180,256,c),
(180,285,l),
(180,287,o),
(182,290,o),
(185,290,c),
(240,290,l),
(242,290,o),
(245,287,o),
(245,285,c)
);
}
);
width = 295;
}
);
unicode = 1372;
},
{
glyphname = "comma-arm";
lastChange = "2024-09-16 19:12:32 +0000";
layers = (
{
layerId = m01;
shapes = (
{
closed = 1;
nodes = (
(53,255,l),
(49,251,o),
(49,244,o),
(53,240,c),
(142,152,l),
(145,148,o),
(152,148,o),
(156,152,c),
(187,184,l),
(191,188,o),
(191,194,o),
(187,198,c),
(99,286,l),
(95,290,o),
(89,290,o),
(85,286,c)
);
}
);
width = 240;
}
);
unicode = 1373;
},
{
glyphname = "question-arm";
lastChange = "2024-09-16 19:15:18 +0000";
layers = (
{
layerId = m01;
shapes = (
{
closed = 1;
nodes = (
(213,219,l),
(213,211,o),
(205,203,o),
(196,203,c),
(164,203,l),
(155,203,o),
(148,211,o),
(148,219,c),
(148,230,l),
(148,239,o),
(140,247,o),
(131,247,c),
(131,247,l),
(122,247,o),
(115,239,o),
(115,230,c),
(115,205,l),
(115,196,o),
(108,189,o),
(99,189,c),
(66,189,l),
(57,189,o),
(50,196,o),
(50,205,c),
(50,274,l),
(50,283,o),
(57,290,o),
(66,290,c),
(196,290,l),
(205,290,o),
(213,283,o),
(213,274,c)
);
}
);
width = 263;
}
);
unicode = 1374;
},
{
glyphname = "abbreviation-arm";
lastChange = "2024-09-16 19:16:03 +0000";
layers = (
{
layerId = m01;
shapes = (
{
closed = 1;
nodes = (
(213,232,l),
(213,224,o),
(206,218,o),
(198,218,c),
(65,218,l),
(57,218,o),
(50,224,o),
(50,232,c),
(50,276,l),
(50,284,o),
(57,290,o),
(65,290,c),
(100,290,l),
(109,290,o),
(115,284,o),
(115,276,c),
(115,262,l),
(115,254,o),
(122,247,o),
(130,247,c),
(198,247,l),
(206,247,o),
(213,240,o),
(213,232,c)
);
}
);
width = 263;
}
);
unicode = 1375;
},
{
glyphname = "period-arm";
lastChange = "2024-09-16 19:17:27 +0000";
layers = (
{
layerId = m01;
shapes = (
{
closed = 1;
nodes = (
(70,225,l),
(59,225,o),
(50,234,o),
(50,245,c),
(50,270,l),
(50,281,o),
(59,290,o),
(70,290,c),
(95,290,l),
(106,290,o),
(115,281,o),
(115,270,c),
(115,245,l),
(115,234,o),
(106,225,o),
(95,225,c)
);
},
{
closed = 1;
nodes = (
(70,109,l),
(59,109,o),
(50,118,o),
(50,129,c),
(50,154,l),
(50,165,o),
(59,174,o),
(70,174,c),
(95,174,l),
(106,174,o),
(115,165,o),
(115,154,c),
(115,129,l),
(115,118,o),
(106,109,o),
(95,109,c)
);
}
);
width = 165;
}
);
unicode = 1417;
},
{
glyphname = "hyphen-arm";
lastChange = "2024-09-16 19:17:48 +0000";
layers = (
{
layerId = m01;
shapes = (
{
closed = 1;
nodes = (
(70,225,l),
(59,225,o),
(50,234,o),
(50,245,c),
(50,270,l),
(50,281,o),
(59,290,o),
(70,290,c),
(193,290,l),
(204,290,o),
(213,281,o),
(213,270,c),
(213,245,l),
(213,234,o),
(204,225,o),
(193,225,c)
);
}
);
width = 263;
}
);
unicode = 1418;
},
{
glyphname = "dram-arm";
lastChange = "2024-09-19 10:50:38 +0000";
layers = (
{
layerId = m01;
shapes = (
{
closed = 1;
nodes = (
(830,105,l),
(830,103,o),
(832,101,o),
(834,101,c),
(923,101,l),
(925,101,o),
(928,99,o),
(928,96,c),
(928,77,l),
(928,74,o),
(925,72,o),
(923,72,c),
(834,72,l),
(832,72,o),
(830,70,o),
(830,68,c),
(830,10,l),
(830,4,o),
(826,0,o),
(820,0,c),
(548,0,l),
(542,0,o),
(538,4,o),
(538,10,c),
(538,68,l),
(538,70,o),
(536,72,o),
(534,72,c),
(445,72,l),
(442,72,o),
(440,74,o),
(440,77,c),
(440,96,l),
(440,99,o),
(442,101,o),
(445,101,c),
(534,101,l),
(536,101,o),
(538,103,o),
(538,105,c),
(538,141,l),
(538,143,o),
(536,145,o),
(534,145,c),
(445,145,l),
(442,145,o),
(440,147,o),
(440,150,c),
(440,169,l),
(440,171,o),
(442,174,o),
(445,174,c),
(534,174,l),
(536,174,o),
(538,175,o),
(538,177,c),
(538,253,l),
(538,261,o),
(531,267,o),
(523,267,c),
(390,267,l),
(386,267,o),
(382,266,o),
(379,263,c),
(377,260,o),
(375,257,o),
(375,253,c),
(375,188,l),
(375,183,o),
(371,178,o),
(365,178,c),
(60,178,l),
(55,178,o),
(50,183,o),
(50,188,c),
(50,230,l),
(50,263,o),
(77,290,o),
(110,290,c),
(770,290,l),
(803,290,o),
(830,263,o),
(830,230,c),
(830,178,l),
(830,176,o),
(832,174,o),
(834,174,c),
(923,174,l),
(925,174,o),
(928,171,o),
(928,169,c),
(928,150,l),
(928,147,o),
(925,145,o),
(923,145,c),
(834,145,l),
(832,145,o),
(830,143,o),
(830,141,c)
);
}
);
width = 978;
}
);
unicode = 1423;
},
